<svg width="160" height="160" viewBox="0 0 160 160" fill="none" xmlns="http://www.w3.org/2000/svg">
<path d="M76.672 152.32C61.488 152.08 46.4 151.152 32 145.712C26.7358 143.818 21.7971 141.12 17.36 137.712C5.23199 128.112 5.91999 116.912 19.232 109.04C25.4302 105.3 32.5369 103.336 39.776 103.36C62.176 103.552 84.224 100.32 106.32 96.6883C120.576 94.3523 133.52 100.496 145.2 108.256C152 112.8 153.024 120.864 148.8 128.128C144.752 135.056 138.592 139.44 131.2 142.528C113.906 149.559 95.332 152.894 76.672 152.32Z" fill="#D4E6E9"/>
<g style="mix-blend-mode:multiply" opacity="0.2">
<path d="M15.072 112.896L23.68 107.952L92.064 68.8004L96 66.4164C97.2287 65.8084 98.5811 65.4922 99.952 65.4922C101.323 65.4922 102.675 65.8084 103.904 66.4164L145.888 90.4163C148.064 91.6644 148.08 93.6964 145.888 94.9444L141.872 97.2484L135.28 101.024L73.6 136.432L64.992 141.36C63.7682 141.975 62.4176 142.296 61.048 142.296C59.6784 142.296 58.3278 141.975 57.104 141.36L15.12 117.36C12.928 116.16 12.912 114.128 15.072 112.896Z" fill="#1C4B5F"/>
</g>
<path d="M143.296 84.8003V91.0723C143.246 91.5403 143.071 91.9863 142.79 92.3635C142.508 92.7407 142.13 93.0353 141.696 93.2163V86.8643C142.121 86.6927 142.494 86.4111 142.775 86.0485C143.056 85.6859 143.236 85.2552 143.296 84.8003Z" fill="url(#paint0_linear_517_16371)"/>
<path d="M143.296 84.8002V91.0722C143.246 91.5402 143.071 91.9862 142.79 92.3634C142.508 92.7406 142.13 93.0352 141.696 93.2162V86.8642C142.132 86.6861 142.512 86.3924 142.794 86.0146C143.076 85.6368 143.249 85.1893 143.296 84.7202V84.8002Z" fill="url(#paint1_linear_517_16371)"/>
<path d="M15.472 112.416V106.144C15.5164 106.618 15.6887 107.07 15.9705 107.454C16.2524 107.837 16.6331 108.136 17.072 108.32V114.576C16.6323 114.398 16.2503 114.102 15.9679 113.721C15.6856 113.34 15.514 112.888 15.472 112.416Z" fill="url(#paint2_linear_517_16371)"/>
<path d="M17.04 108.32V114.576C16.6003 114.398 16.2182 114.102 15.9359 113.721C15.6536 113.34 15.482 112.888 15.44 112.416V106.144C15.4844 106.618 15.6567 107.07 15.9385 107.454C16.2204 107.837 16.6011 108.136 17.04 108.32Z" fill="url(#paint3_linear_517_16371)"/>
<path d="M141.76 86.8643L141.744 93.1203L64.56 137.408L64.576 131.136L141.76 86.8643Z" fill="url(#paint4_linear_517_16371)"/>
<path d="M57.056 131.136L57.04 137.408L17.024 114.576L17.04 108.304L57.056 131.136Z" fill="url(#paint5_linear_517_16371)"/>
<path d="M64.576 131.2V137.472C63.4088 138.056 62.1214 138.361 60.816 138.361C59.5107 138.361 58.2233 138.056 57.056 137.472V131.2C58.2233 131.784 59.5107 132.089 60.816 132.089C62.1214 132.089 63.4088 131.784 64.576 131.2Z" fill="url(#paint6_linear_517_16371)"/>
<path d="M64.576 131.2V137.472C63.4088 138.056 62.1214 138.361 60.816 138.361C59.5107 138.361 58.2233 138.056 57.056 137.472V131.2C58.2233 131.784 59.5107 132.089 60.816 132.089C62.1214 132.089 63.4088 131.784 64.576 131.2Z" fill="url(#paint7_linear_517_16371)"/>
<path d="M90.384 61.9199L137.936 89.0559L72.768 126.432L25.216 99.3119L90.384 61.9199Z" fill="url(#paint8_linear_517_16371)"/>
<path d="M94.192 59.7281C95.3621 59.1436 96.6521 58.8394 97.96 58.8394C99.2679 58.8394 100.558 59.1436 101.728 59.7281L141.728 82.5601C143.808 83.7441 143.824 85.6801 141.728 86.8641L137.904 89.0561L90.352 61.8561L94.192 59.7281Z" fill="url(#paint9_linear_517_16371)"/>
<path d="M17.024 104L25.216 99.312L72.768 126.4L64.576 131.2C63.4087 131.784 62.1214 132.089 60.816 132.089C59.5107 132.089 58.2233 131.784 57.056 131.2L17.056 108.384C14.976 107.2 14.96 105.184 17.024 104Z" fill="url(#paint10_linear_517_16371)"/>
<path d="M38.112 116.928L43.392 120.128C44.1974 120.582 45.0992 120.837 46.0229 120.874C46.9466 120.91 47.8656 120.726 48.704 120.336C49.0241 120.231 49.3028 120.027 49.5004 119.754C49.698 119.481 49.8044 119.153 49.8044 118.816C49.8044 118.479 49.698 118.151 49.5004 117.878C49.3028 117.605 49.0241 117.401 48.704 117.296L43.408 113.984C42.6029 113.537 41.7034 113.286 40.783 113.253C39.8626 113.219 38.9474 113.404 38.112 113.792C36.608 114.576 36.512 115.936 38.032 116.848L38.112 116.928Z" fill="url(#paint11_linear_517_16371)"/>
<path d="M25.472 118.208L21.28 115.632V112.704L25.472 115.296V118.208Z" fill="white"/>
<path d="M22.144 115.136L25.296 117.152V117.92L21.456 115.536V115.52L22.144 115.136Z" fill="#5C697C"/>
<path d="M25.296 115.392V117.152L22.144 115.136V113.392L22.304 113.488L25.296 115.392Z" fill="#1B1B1B"/>
<path d="M25.296 115.664V116.896L22.304 114.992V113.744L25.296 115.664Z" fill="#1B1823"/>
<path d="M21.456 114.752V113.008L22.144 113.392V115.136L21.456 115.52V114.752Z" fill="#404040"/>
<path d="M17.6 112C17.6105 112.456 17.7273 112.903 17.9412 113.306C18.1551 113.709 18.4601 114.056 18.832 114.32C19.504 114.704 20.064 114.32 20.064 113.392C20.0535 112.936 19.9366 112.489 19.7227 112.086C19.5088 111.683 19.2038 111.336 18.832 111.072C18.208 110.704 17.6 111.12 17.6 112Z" fill="#1B1B1B"/>
<path d="M19.968 113.6C19.5952 113.337 19.2895 112.99 19.0755 112.587C18.8615 112.184 18.7452 111.736 18.736 111.28C18.7282 111.179 18.7282 111.077 18.736 110.976C18.112 110.704 17.616 111.104 17.616 111.952C17.6265 112.408 17.7433 112.855 17.9572 113.258C18.1711 113.661 18.4761 114.008 18.848 114.272C19.44 114.608 19.936 114.272 20.048 113.648L19.968 113.6Z" fill="#5C697C"/>
<path d="M19.2 114.144C18.8293 113.88 18.526 113.533 18.3147 113.13C18.1034 112.727 17.9901 112.28 17.984 111.824C17.9633 111.513 18.0603 111.204 18.256 110.96C17.888 111.04 17.632 111.408 17.632 112.016C17.6425 112.472 17.7593 112.92 17.9732 113.322C18.1871 113.725 18.4921 114.072 18.864 114.336C18.9964 114.447 19.1634 114.508 19.336 114.508C19.5085 114.508 19.6756 114.447 19.808 114.336C19.5886 114.349 19.3723 114.281 19.2 114.144Z" fill="#D9E1EE"/>
<path d="M124.272 76.9442C124.17 77.1067 124.026 77.2392 123.856 77.3282C123.483 77.5218 123.068 77.6228 122.648 77.6228C122.228 77.6228 121.813 77.5218 121.44 77.3282L111.344 71.0722C111.186 70.9828 111.059 70.8494 110.976 70.6882C110.768 70.3202 110.976 69.9202 111.392 69.6642C111.775 69.4826 112.196 69.3965 112.62 69.4132C113.043 69.4299 113.457 69.549 113.824 69.7602L123.888 76.0322C124.352 76.2402 124.48 76.6082 124.272 76.9442Z" fill="url(#paint12_linear_517_16371)"/>
<path d="M124.272 76.9442C124.17 77.1067 124.026 77.2392 123.856 77.3282C123.483 77.5218 123.068 77.6228 122.648 77.6228C122.228 77.6228 121.813 77.5218 121.44 77.3282L111.344 71.0722C111.187 70.9829 111.059 70.8494 110.976 70.6882C111.064 70.5104 111.211 70.3688 111.392 70.2882C111.775 70.1066 112.196 70.0205 112.62 70.0372C113.043 70.0539 113.457 70.173 113.824 70.3842L123.888 76.6562C124.039 76.7175 124.171 76.8167 124.272 76.9442Z" fill="#30273B"/>
<path d="M139.072 83.9683C139.038 84.1621 138.958 84.345 138.838 84.501C138.719 84.6571 138.563 84.7817 138.384 84.8643C137.86 85.125 137.282 85.2607 136.696 85.2607C136.11 85.2607 135.532 85.125 135.008 84.8643C134.813 84.7591 134.643 84.6115 134.512 84.4323C134.144 83.9203 134.304 83.3443 135.008 82.9443C135.532 82.6835 136.11 82.5479 136.696 82.5479C137.282 82.5479 137.86 82.6835 138.384 82.9443C138.59 83.0233 138.767 83.1641 138.89 83.3474C139.013 83.5307 139.077 83.7475 139.072 83.9683Z" fill="#30273B"/>
<path d="M137.936 89.0562V92.2721L72.768 129.664V126.432L137.936 89.0562Z" fill="url(#paint13_linear_517_16371)"/>
<path d="M90.384 61.9204L137.936 89.0564L131.648 92.6564L84.096 65.5364L90.384 61.9204Z" fill="url(#paint14_linear_517_16371)"/>
<path d="M96.528 70.7202L91.568 67.8882L93.856 66.5762L98.816 69.4082L96.528 70.7202ZM91.84 67.8882L96.528 70.5602L98.544 69.4082L93.856 66.7362L91.84 67.8882Z" fill="#D9E1EE"/>
<path d="M98.688 69.4084L96.528 70.6404L93.184 68.7364L95.344 67.5044L98.688 69.4084Z" fill="#D9E1EE"/>
<path d="M105.408 74.7842L104.672 74.3682L103.872 74.8322L104.608 75.2482L105.408 74.7842Z" fill="#D9E1EE"/>
<path d="M107.072 74.9604L106.336 74.5444L104.864 75.3924L105.6 75.8084L107.072 74.9604Z" fill="#D9E1EE"/>
<path d="M108.736 75.1362L108 74.7202L105.856 75.9522L106.576 76.3682L108.736 75.1362Z" fill="#D9E1EE"/>
<path d="M99.488 69.9361C99.7694 70.0825 100.037 70.2539 100.288 70.4481L100.048 70.5921L99.328 70.1761C99.072 70.0321 98.672 70.1761 98.448 70.3521C98.686 70.4388 98.9162 70.5459 99.136 70.6721C99.52 70.8801 99.392 71.0401 99.136 71.1841L98.8 71.3761C98.6624 71.4594 98.5047 71.5034 98.344 71.5034C98.1832 71.5034 98.0255 71.4594 97.888 71.3761L97.488 71.1521C97.184 70.9761 97.152 70.7361 98.032 70.2561C98.912 69.7761 99.2 69.8081 99.488 69.9361ZM97.888 70.9921L98.16 71.1521C98.2178 71.1949 98.2879 71.2181 98.36 71.2181C98.432 71.2181 98.5021 71.1949 98.56 71.1521L98.8 71.0241C98.944 70.9281 98.912 70.8641 98.8 70.8001L98.24 70.4801C97.952 70.6401 97.6 70.8481 97.888 70.9921Z" fill="#D9E1EE"/>
<path d="M100.608 70.5923L101.888 71.3123V71.4723L99.344 72.1283L98.912 72.0003L101.296 71.3923L100.304 70.8323L100.608 70.5923Z" fill="#D9E1EE"/>
<path d="M103.872 72.4484L104.112 72.5924L100.912 73.0404L100.656 72.8964L103.872 72.4484ZM101.808 71.6644C101.912 71.5936 102.034 71.5557 102.16 71.5557C102.286 71.5557 102.408 71.5936 102.512 71.6644L102.8 71.8244C103.072 71.9684 103.04 72.0964 102.8 72.2244L102.464 72.4324C102.357 72.5026 102.232 72.54 102.104 72.54C101.976 72.54 101.851 72.5026 101.744 72.4324L101.456 72.2724C101.184 72.1284 101.216 72.0004 101.456 71.8724L101.808 71.6644ZM101.728 72.1604L101.952 72.2884C101.995 72.3235 102.049 72.3427 102.104 72.3427C102.159 72.3427 102.213 72.3235 102.256 72.2884L102.544 72.1284C102.656 72.1284 102.64 72.0164 102.544 71.9524L102.304 71.8244C102.262 71.7933 102.212 71.7764 102.16 71.7764C102.108 71.7764 102.058 71.7933 102.016 71.8244L101.712 71.9844C101.616 72.0004 101.6 72.0804 101.728 72.1604ZM102.288 73.0404C102.395 72.9702 102.52 72.9328 102.648 72.9328C102.776 72.9328 102.901 72.9702 103.008 73.0404L103.296 73.2004C103.552 73.3604 103.52 73.4724 103.296 73.6164L102.944 73.8084C102.837 73.8786 102.712 73.916 102.584 73.916C102.456 73.916 102.331 73.8786 102.224 73.8084L101.952 73.6484C101.68 73.4884 101.712 73.3764 101.952 73.2324L102.288 73.0404ZM102.288 73.5204L102.4 73.6004C102.445 73.6307 102.498 73.6469 102.552 73.6469C102.606 73.6469 102.659 73.6307 102.704 73.6004L102.992 73.4244C103.12 73.4244 103.104 73.3284 102.992 73.2644L102.768 73.1364C102.725 73.1013 102.671 73.0822 102.616 73.0822C102.561 73.0822 102.507 73.1013 102.464 73.1364L102.176 73.3124C102.096 73.4244 102.096 73.4564 102.208 73.6004L102.288 73.5204Z" fill="#D9E1EE"/>
<path d="M110.4 78.4004C110.553 78.3218 110.723 78.2808 110.896 78.2808C111.068 78.2808 111.238 78.3218 111.392 78.4004C111.68 78.5444 111.68 78.8004 111.392 78.9604C111.238 79.039 111.068 79.08 110.896 79.08C110.723 79.08 110.553 79.039 110.4 78.9604C110.192 78.8324 110.192 78.5764 110.4 78.4004Z" fill="white"/>
<path d="M112 78.1442C111.671 77.9662 111.302 77.878 110.928 77.8882V77.6002C111.423 77.5899 111.913 77.7055 112.352 77.9362C112.515 78.0069 112.655 78.1199 112.759 78.2634C112.863 78.4069 112.927 78.5757 112.944 78.7522H112.448C112.435 78.6199 112.387 78.4935 112.308 78.3864C112.229 78.2793 112.123 78.1957 112 78.1442Z" fill="white"/>
<path d="M112.736 77.6965C112.163 77.4001 111.525 77.2516 110.88 77.2645V76.9765C111.649 76.9614 112.409 77.1431 113.088 77.5044C113.333 77.6185 113.545 77.7928 113.705 78.011C113.864 78.2292 113.966 78.4843 114 78.7524H113.504C113.483 78.5237 113.4 78.305 113.265 78.1192C113.13 77.9334 112.947 77.7873 112.736 77.6965Z" fill="white"/>
<path d="M113.44 77.2963C112.651 76.8821 111.771 76.6731 110.88 76.6883V76.4163C111.891 76.3959 112.892 76.6268 113.792 77.0883C114.112 77.2302 114.39 77.4517 114.601 77.7318C114.811 78.012 114.945 78.3413 114.992 78.6883H114.496C114.455 78.3849 114.336 78.0973 114.151 77.8535C113.966 77.6096 113.721 77.4176 113.44 77.2963Z" fill="white"/>
<path d="M127.232 88.5926L130.256 86.8646L126.272 86.4966L127.232 88.5926Z" fill="#D9E1EE"/>
<path d="M125.36 85.9844L124.72 83.7124L121.696 85.4404L125.36 85.9844Z" fill="#D9E1EE"/>
<path d="M125.488 86.4323L125.392 86.0643L121.6 85.4883L127.136 88.6403L126.144 86.4963L125.488 86.4323Z" fill="#D9E1EE"/>
<path d="M130.352 86.8164L124.816 83.6484L125.6 86.3684L130.352 86.8164Z" fill="#D9E1EE"/>
<path d="M33.728 98.2725L33.744 101.488L69.872 122.224V119.024L33.728 98.2725Z" fill="#2F4C6C"/>
<path d="M69.872 119.024V122.224L129.904 87.9841V84.7681L69.872 119.024Z" fill="#243B55"/>
<path d="M33.728 98.2722L69.872 119.024L129.904 84.7682L93.76 64.0322L33.728 98.2722Z" fill="#3C5E83"/>
<path d="M39.232 58.8159L39.376 98.6079L69.888 116.128L69.744 76.3359L39.232 58.8159Z" fill="#D8D3CB"/>
<path d="M69.744 76.3361L69.888 116.128L124.256 85.1201L124.112 45.3281L69.744 76.3361Z" fill="#EDE6DA"/>
<path d="M39.232 58.8161L69.744 76.3361L124.112 45.3281L93.6 27.8081L39.232 58.8161Z" fill="#BB860A"/>
<path d="M33.728 55.5845L33.744 62.3845L69.872 83.1365V76.3365L33.728 55.5845Z" fill="#E25B00"/>
<path d="M69.872 76.3362V83.1362L129.904 48.8962V42.0962L69.872 76.3362Z" fill="#CE5300"/>
<path d="M33.728 55.5842L69.872 76.3362L129.904 42.0962L93.76 21.3442L33.728 55.5842Z" fill="#F86400"/>
<path d="M45.232 50.7363V55.9043L72.736 71.6963L72.72 66.5283L45.232 50.7363Z" fill="url(#paint15_linear_517_16371)"/>
<path d="M72.72 66.5284L72.736 71.6964L118.4 45.6324V40.4644L72.72 66.5284Z" fill="url(#paint16_linear_517_16371)"/>
<path d="M45.232 50.7365L72.72 66.5285L118.4 40.4645L90.912 24.6885L45.232 50.7365Z" fill="url(#paint17_linear_517_16371)"/>
<path d="M58.544 105.6L60.8 104.304L60.784 103.648L58.528 104.944L58.544 105.6Z" fill="#C2C2C2"/>
<path d="M58.528 104.944L60.784 103.648L44.32 94.4961L42.064 95.7921L58.528 104.944Z" fill="#FAFBFD"/>
<path d="M42.064 95.792V96.448L58.544 105.6L58.528 104.944L42.064 95.792Z" fill="#E8E9EB"/>
<path d="M45.456 79.1201L44.848 94.2081L60.208 103.568L60.48 87.5841L45.456 79.1201Z" fill="#F79500"/>
<path d="M44.848 94.2086L45.424 93.8726L45.456 79.1206L44.864 79.4566L44.848 94.2086Z" fill="#8B8B8C"/>
<path d="M59.264 102.433L59.856 102.097L45.424 93.8726L44.848 94.2086L59.264 102.433Z" fill="#AAABAC"/>
<path d="M60.176 103.985L60.752 103.649L60.8 86.8325L60.208 87.1685L60.176 103.985Z" fill="#C2C2C2"/>
<path d="M60.208 87.1684L60.8 86.8324L44.544 77.5684L43.968 77.9044L60.208 87.1684Z" fill="#FAFBFD"/>
<path d="M60.176 104L43.936 94.7203V77.9043L60.176 87.1683V104ZM44.8 94.2083L59.2 102.4V87.6643L44.8 79.4243V94.1763V94.2083Z" fill="#E8E9EB"/>
<path d="M45.824 76.5767V77.3287L41.744 83.9207V83.1527L45.824 76.5767Z" fill="#CDCED0"/>
<path d="M41.744 83.1524V83.9204L39.712 82.7684V81.9844L41.744 83.1524Z" fill="#A0A0A1"/>
<path d="M45.824 76.5765L41.744 83.1525L39.712 81.9845L44.096 75.5845L45.824 76.5765Z" fill="#FAFBFD"/>
<path d="M47.856 77.728V78.48L43.776 85.072V84.304L47.856 77.728Z" fill="#C7391C"/>
<path d="M43.776 84.3043V85.0723L41.744 83.9203V83.1523L43.776 84.3043Z" fill="#DD5900"/>
<path d="M47.856 77.7282L43.776 84.3042L41.744 83.1522L45.824 76.5762L47.856 77.7282Z" fill="#F86400"/>
<path d="M49.888 78.896V79.648L45.808 86.24V85.472L49.888 78.896Z" fill="#CDCED0"/>
<path d="M45.808 85.4722V86.2402L43.776 85.0722V84.3042L45.808 85.4722Z" fill="#A0A0A1"/>
<path d="M49.888 78.896L45.808 85.472L43.776 84.304L47.856 77.728L49.888 78.896Z" fill="#FAFBFD"/>
<path d="M51.92 80.048L47.84 86.624L45.808 85.472L49.888 78.896L51.92 80.048Z" fill="#F86400"/>
<path d="M51.92 80.0479V80.7999L47.84 87.3919V86.6239L51.92 80.0479Z" fill="#C7391C"/>
<path d="M47.84 86.6242V87.3922L45.808 86.2402V85.4722L47.84 86.6242Z" fill="#DD5900"/>
<path d="M53.936 81.2002L53.952 81.9682L49.872 88.5602L49.888 87.7922L53.936 81.2002Z" fill="#CDCED0"/>
<path d="M49.888 87.792L49.872 88.56L47.84 87.392V86.624L49.888 87.792Z" fill="#A0A0A1"/>
<path d="M53.936 81.1999L49.888 87.7918L47.84 86.6238L51.92 80.0479L53.936 81.1999Z" fill="#FAFBFD"/>
<path d="M55.968 82.3682L55.984 83.1202L51.904 89.7122L51.92 88.9442L55.968 82.3682Z" fill="#C7391C"/>
<path d="M51.92 88.944L51.904 89.712L49.872 88.56L49.888 87.792L51.92 88.944Z" fill="#DD5900"/>
<path d="M55.968 82.3682L51.92 88.9442L49.888 87.7922L53.936 81.2002L55.968 82.3682Z" fill="#F86400"/>
<path d="M58.016 83.5361V84.2721L53.936 90.8801L53.952 90.1121L58.016 83.5361Z" fill="#CDCED0"/>
<path d="M53.952 90.1123L53.936 90.8803L51.904 89.7123L51.92 88.9443L53.952 90.1123Z" fill="#A0A0A1"/>
<path d="M58.016 83.5362L53.952 90.1122L51.92 88.9442L55.968 82.3682L58.016 83.5362Z" fill="#FAFBFD"/>
<path d="M60.0479 84.688V85.44L55.9839 92.032V91.264L60.0479 84.688Z" fill="#C7391C"/>
<path d="M55.984 91.2643V92.0323L53.936 90.8803L53.952 90.1123L55.984 91.2643Z" fill="#DD5900"/>
<path d="M60.048 84.6881L55.984 91.2641L53.952 90.1121L58.016 83.5361L60.048 84.6881Z" fill="#F86400"/>
<path d="M62.08 85.8564V86.5924L58.016 93.2004V92.4324L62.08 85.8564Z" fill="#CDCED0"/>
<path d="M58.016 92.4326V93.2006L55.984 92.0326V91.2646L58.016 92.4326Z" fill="#A0A0A1"/>
<path d="M62.08 85.8565L58.016 92.4325L55.984 91.2645L60.048 84.6885L62.08 85.8565Z" fill="#FAFBFD"/>
<path d="M109.408 45.0724L105.504 47.3124L103.952 46.4164L107.872 44.1924L109.408 45.0724Z" fill="url(#paint18_linear_517_16371)"/>
<path d="M91.6 53.4723C92.7455 50.3004 94.9123 47.599 97.76 45.7923C98.4767 45.2751 99.3175 44.9567 100.197 44.8696C101.077 44.7825 101.964 44.9297 102.768 45.2963L104.368 46.1923C103.565 45.8218 102.679 45.671 101.799 45.7553C100.919 45.8397 100.077 46.1561 99.36 46.6723C96.485 48.4861 94.2953 51.2049 93.136 54.4003L89.232 56.6403V64.7843L87.632 63.9043V55.7443L91.6 53.4723Z" fill="url(#paint19_linear_517_16371)"/>
<path d="M99.3119 46.6723C96.4549 48.494 94.2828 51.2119 93.1359 54.4003L89.2319 56.6403V64.7843L109.44 53.2323V45.0723L105.536 47.3123C104.304 45.5043 101.984 45.1523 99.3119 46.6723Z" fill="url(#paint20_linear_517_16371)"/>
<path d="M103.344 74.1123V97.0723L92.464 103.296L92.416 80.3363L103.344 74.1123Z" fill="#F79500"/>
<path d="M103.248 97.6323L102.768 97.3603L102.72 74.3843L103.2 74.6563L103.248 97.6323Z" fill="#8B8B8C"/>
<path d="M92.224 103.92L91.744 103.648L91.696 80.0322L92.176 80.3042L92.224 103.92Z" fill="#8B8B8C"/>
<path d="M92.176 80.3042L91.696 80.0322L103.296 73.4082L103.776 73.6802L92.176 80.3042Z" fill="#FAFBFD"/>
<path d="M103.776 73.6802L103.824 97.2962L103.248 97.6322L103.2 74.6562L92.752 80.6402L92.8 103.6L92.224 103.92L92.176 80.3042L103.776 73.6802Z" fill="#E8E9EB"/>
<path d="M94.528 92.5445L94.144 92.3365C94.092 92.3098 94.0344 92.2959 93.976 92.2959C93.9176 92.2959 93.86 92.3098 93.808 92.3365L94.192 92.5605C94.2431 92.531 94.301 92.5155 94.36 92.5155C94.419 92.5155 94.4769 92.531 94.528 92.5605V92.5445Z" fill="#BFBBB2"/>
<path d="M94.192 92.5927L93.808 92.3687C93.6733 92.4563 93.5611 92.5743 93.4805 92.7133C93.3999 92.8523 93.3532 93.0083 93.344 93.1687C93.3407 93.2273 93.3522 93.2859 93.3773 93.339C93.4025 93.3921 93.4405 93.438 93.488 93.4726L93.856 93.6806C93.8103 93.6453 93.7745 93.5987 93.7521 93.5454C93.7297 93.4922 93.7214 93.4341 93.728 93.3767C93.7344 93.2178 93.7801 93.0629 93.8611 92.9261C93.9421 92.7893 94.0558 92.6747 94.192 92.5927Z" fill="#BFBBB2"/>
<path d="M94.192 92.5927C94.0557 92.6747 93.942 92.7893 93.861 92.9261C93.7801 93.0629 93.7343 93.2178 93.728 93.3767C93.728 93.6807 93.936 93.7927 94.192 93.6487C94.3266 93.5611 94.4388 93.443 94.5194 93.304C94.6 93.165 94.6468 93.009 94.656 92.8487C94.656 92.5606 94.4 92.4327 94.192 92.5927Z" fill="#E5E0D5"/>
<path d="M107.744 88.576L105.488 87.28V86.624L107.744 87.92V88.576Z" fill="#C2C2C2"/>
<path d="M107.744 87.9202L105.488 86.6242L121.968 77.4722L124.224 78.7682L107.744 87.9202Z" fill="#FAFBFD"/>
<path d="M124.224 78.7681V79.4241L107.744 88.5761V87.9201L124.224 78.7681Z" fill="#E8E9EB"/>
<path d="M120.832 62.0962L121.44 77.1842L106.08 86.5602L105.808 70.5602L120.832 62.0962Z" fill="#F79500"/>
<path d="M121.44 77.1847L120.864 76.8487L120.832 62.0967L121.408 62.4327L121.44 77.1847Z" fill="#8B8B8C"/>
<path d="M107.024 85.4086L106.432 85.0726L120.864 76.8486L121.44 77.1846L107.024 85.4086Z" fill="#AAABAC"/>
<path d="M106.112 86.9606L105.52 86.6246L105.488 69.8086L106.08 70.1446L106.112 86.9606Z" fill="#C2C2C2"/>
<path d="M106.08 70.1444L105.488 69.8084L121.728 60.5444L122.32 60.8804L106.08 70.1444Z" fill="#FAFBFD"/>
<path d="M106.08 70.1444L122.32 60.8804V77.6964L106.112 86.9604L106.08 70.1444ZM121.44 77.1844V62.4484L107.04 70.6724V85.4084L121.44 77.1844Z" fill="#E8E9EB"/>
<path d="M120.464 59.5522V60.3042L124.528 66.8962V66.1282L120.464 59.5522Z" fill="#CDCED0"/>
<path d="M124.528 66.128V66.896L126.576 65.744L126.56 64.96L124.528 66.128Z" fill="#A0A0A1"/>
<path d="M120.464 59.5522L124.528 66.1282L126.56 64.9602L122.192 58.5762L120.464 59.5522Z" fill="#FAFBFD"/>
<path d="M118.432 60.7202V61.4562L122.496 68.0642V67.2802L118.432 60.7202Z" fill="#C7391C"/>
<path d="M122.496 67.2804V68.0644L124.528 66.8964V66.1284L122.496 67.2804Z" fill="#DD5900"/>
<path d="M118.432 60.7202L122.496 67.2802L124.528 66.1282L120.464 59.5522L118.432 60.7202Z" fill="#F86400"/>
<path d="M116.4 61.8721V62.6241L120.464 69.2161V68.4481L116.4 61.8721Z" fill="#CDCED0"/>
<path d="M120.464 68.4483V69.2163L122.496 68.0643V67.2803L120.464 68.4483Z" fill="#A0A0A1"/>
<path d="M116.4 61.8722L120.464 68.4482L122.496 67.2802L118.432 60.7202L116.4 61.8722Z" fill="#FAFBFD"/>
<path d="M114.368 63.0241L118.432 69.6161L120.464 68.4481L116.4 61.8721L114.368 63.0241Z" fill="#F86400"/>
<path d="M114.368 63.0244V63.7764L118.432 70.3684V69.6164L114.368 63.0244Z" fill="#C7391C"/>
<path d="M118.432 69.6162V70.3682L120.464 69.2162V68.4482L118.432 69.6162Z" fill="#DD5900"/>
<path d="M112.352 64.1763L112.336 64.9443L116.4 71.5363V70.7683L112.352 64.1763Z" fill="#CDCED0"/>
<path d="M116.4 70.7682V71.5362L118.432 70.3682V69.6162L116.4 70.7682Z" fill="#A0A0A1"/>
<path d="M112.352 64.1764L116.4 70.7684L118.432 69.6164L114.368 63.0244L112.352 64.1764Z" fill="#FAFBFD"/>
<path d="M110.304 65.3442V66.0962L114.368 72.7042V71.9202L110.304 65.3442Z" fill="#C7391C"/>
<path d="M114.368 71.9201V72.7041L116.4 71.5361V70.7681L114.368 71.9201Z" fill="#DD5900"/>
<path d="M110.304 65.3443L114.368 71.9203L116.4 70.7683L112.352 64.1763L110.304 65.3443Z" fill="#F86400"/>
<path d="M108.272 66.5122V67.2642L112.336 73.8562V73.0882L108.272 66.5122Z" fill="#CDCED0"/>
<path d="M112.336 73.0884V73.8564L114.368 72.7044V71.9204L112.336 73.0884Z" fill="#A0A0A1"/>
<path d="M108.272 66.5122L112.336 73.0882L114.368 71.9202L110.304 65.3442L108.272 66.5122Z" fill="#FAFBFD"/>
<path d="M106.24 67.6641V68.4161L110.304 75.0081V74.2401L106.24 67.6641Z" fill="#C7391C"/>
<path d="M110.304 74.2404V75.0084L112.336 73.8564V73.0884L110.304 74.2404Z" fill="#DD5900"/>
<path d="M106.24 67.6642L110.304 74.2402L112.336 73.0882L108.272 66.5122L106.24 67.6642Z" fill="#F86400"/>
<path d="M104.208 68.832V69.584L108.272 76.176V75.408L104.208 68.832Z" fill="#CDCED0"/>
<path d="M108.272 75.4082V76.1762L110.304 75.0082V74.2402L108.272 75.4082Z" fill="#A0A0A1"/>
<path d="M104.208 68.8321L108.272 75.4081L110.304 74.2401L106.24 67.6641L104.208 68.8321Z" fill="#FAFBFD"/>
<path d="M73.792 108L71.536 106.704V106.048L73.792 107.344V108Z" fill="#C2C2C2"/>
<path d="M73.792 107.344L71.536 106.048L88.016 96.896L90.272 98.192L73.792 107.344Z" fill="#FAFBFD"/>
<path d="M90.272 98.1919V98.8479L73.792 108V107.344L90.272 98.1919Z" fill="#E8E9EB"/>
<path d="M86.864 81.52L87.488 96.608L72.112 105.968L71.84 89.968L86.864 81.52Z" fill="#F79500"/>
<path d="M87.488 96.6085L86.896 96.2565L86.864 81.5205L87.456 81.8565L87.488 96.6085Z" fill="#8B8B8C"/>
<path d="M73.056 104.832L72.48 104.496L86.8961 96.2563L87.4881 96.6083L73.056 104.832Z" fill="#AAABAC"/>
<path d="M72.16 106.384L71.568 106.048L71.536 89.2324L72.112 89.5684L72.16 106.384Z" fill="#C2C2C2"/>
<path d="M72.112 89.5683L71.536 89.2323L87.776 79.9683L88.368 80.3043L72.112 89.5683Z" fill="#FAFBFD"/>
<path d="M72.112 89.6004L88.368 80.3364V97.1524L72.16 106.384L72.112 89.6004ZM87.488 96.6244V81.8884L73.088 90.1124V104.864L87.488 96.6244Z" fill="#E8E9EB"/>
<path d="M86.512 78.9766V79.7126L90.576 86.3206V85.5526L86.512 78.9766Z" fill="#CDCED0"/>
<path d="M90.576 85.5523V86.3203L92.608 85.1523V84.3843L90.576 85.5523Z" fill="#A0A0A1"/>
<path d="M86.512 78.9764L90.576 85.5524L92.608 84.3844L88.24 77.9844L86.512 78.9764Z" fill="#FAFBFD"/>
<path d="M84.48 80.1279V80.8799L88.544 87.4719V86.7039L84.48 80.1279Z" fill="#C7391C"/>
<path d="M88.544 86.7042V87.4722L90.576 86.3202V85.5522L88.544 86.7042Z" fill="#DD5900"/>
<path d="M84.48 80.1281L88.544 86.7041L90.576 85.5521L86.512 78.9761L84.48 80.1281Z" fill="#F86400"/>
<path d="M82.4479 81.2964V82.0324L86.5119 88.6404V87.8724L82.4479 81.2964Z" fill="#CDCED0"/>
<path d="M86.512 87.8726V88.6406L88.544 87.4726V86.7046L86.512 87.8726Z" fill="#A0A0A1"/>
<path d="M82.4479 81.2964L86.5119 87.8724L88.5439 86.7044L84.4799 80.1284L82.4479 81.2964Z" fill="#FAFBFD"/>
<path d="M80.416 82.4484L84.48 89.0244L86.512 87.8724L82.448 81.2964L80.416 82.4484Z" fill="#F86400"/>
<path d="M80.416 82.4482V83.2002L84.48 89.7922V89.0242L80.416 82.4482Z" fill="#C7391C"/>
<path d="M84.48 89.0246V89.7925L86.512 88.6406V87.8726L84.48 89.0246Z" fill="#DD5900"/>
<path d="M78.384 83.6006V84.3526L82.448 90.9606V90.1926L78.384 83.6006Z" fill="#CDCED0"/>
<path d="M82.4479 90.1924V90.9604L84.4799 89.7924V89.0244L82.4479 90.1924Z" fill="#A0A0A1"/>
<path d="M78.384 83.6002L82.448 90.1922L84.48 89.0242L80.416 82.4482L78.384 83.6002Z" fill="#FAFBFD"/>
<path d="M76.352 84.7681V85.5201L80.416 92.1121V91.3441L76.352 84.7681Z" fill="#C7391C"/>
<path d="M80.416 91.3439V92.1119L82.448 90.9599V90.1919L80.416 91.3439Z" fill="#DD5900"/>
<path d="M76.352 84.7681L80.416 91.3441L82.448 90.1921L78.384 83.6001L76.352 84.7681Z" fill="#F86400"/>
<path d="M74.304 85.9199L74.32 86.6719L78.384 93.2799V92.4959L74.304 85.9199Z" fill="#CDCED0"/>
<path d="M78.384 92.4962V93.2802L80.416 92.1122V91.3442L78.384 92.4962Z" fill="#A0A0A1"/>
<path d="M74.304 85.9201L78.384 92.4961L80.416 91.3441L76.352 84.7681L74.304 85.9201Z" fill="#FAFBFD"/>
<path d="M72.272 87.0884V87.8404L76.352 94.4324V93.6644L72.272 87.0884Z" fill="#C7391C"/>
<path d="M76.352 93.6646V94.4326L78.384 93.2806V92.4966L76.352 93.6646Z" fill="#DD5900"/>
<path d="M72.272 87.0884L76.352 93.6644L78.384 92.4964L74.304 85.9204L72.272 87.0884Z" fill="#F86400"/>
<path d="M70.24 88.2402V88.9922L74.32 95.6002V94.8322L70.24 88.2402Z" fill="#CDCED0"/>
<path d="M74.32 94.8326V95.6006L76.352 94.4326V93.6646L74.32 94.8326Z" fill="#A0A0A1"/>
<path d="M70.24 88.2404L74.32 94.8324L76.352 93.6644L72.272 87.0884L70.24 88.2404Z" fill="#FAFBFD"/>
<path d="M95.68 109.248L94.128 108.384V105.184L95.68 106.048V109.248Z" fill="#C2C2C2"/>
<path d="M95.68 106.048L94.128 105.184L105.312 98.7842L106.864 99.6482L95.68 106.048Z" fill="#FAFBFD"/>
<path d="M106.864 99.6479V102.848L95.68 109.248V106.048L106.864 99.6479Z" fill="#E8E9EB"/>
<path d="M97.232 110.112L95.68 109.248V107.472L97.232 108.336V110.112Z" fill="#C2C2C2"/>
<path d="M97.232 108.336L95.68 107.472L106.88 101.072L108.432 101.936L97.232 108.336Z" fill="#FAFBFD"/>
<path d="M108.432 101.936V103.712L97.232 110.112V108.336L108.432 101.936Z" fill="#E8E9EB"/>
<path d="M93.952 58.5925V58.4805C93.9539 58.4399 93.9668 58.4005 93.9894 58.3667C94.0119 58.3329 94.0433 58.3058 94.08 58.2885L94.576 58.0005C94.672 58.0005 94.704 58.0005 94.704 58.0005C94.704 58.1445 94.704 58.2405 94.8 58.2565C94.896 58.2725 94.96 58.2565 95.12 58.1445L95.392 57.9845C95.5252 57.9237 95.6409 57.8301 95.728 57.7125C95.7914 57.5949 95.8192 57.4615 95.808 57.3285C95.808 57.2165 95.808 57.1525 95.68 57.1525C95.5553 57.1443 95.4313 57.1781 95.328 57.2485L94.88 57.4405L94.4 57.6005C94.3353 57.6126 94.2684 57.6071 94.2065 57.5846C94.1446 57.5621 94.0899 57.5234 94.048 57.4725C93.9498 57.3207 93.9048 57.1406 93.92 56.9605V56.7525C93.9208 56.4459 94.0097 56.146 94.176 55.8885C94.3626 55.609 94.6084 55.3742 94.896 55.2005L95.488 54.8645C95.808 54.6885 96.048 54.6245 96.224 54.7045C96.4 54.7845 96.48 54.9605 96.48 55.2645V55.3765C96.4824 55.418 96.4712 55.4592 96.4481 55.4938C96.425 55.5285 96.3913 55.5547 96.352 55.5685L95.856 55.8725H95.728C95.728 55.7125 95.728 55.6325 95.648 55.6165C95.568 55.6005 95.472 55.6165 95.312 55.7125L95.088 55.8565C94.9548 55.9172 94.8392 56.0108 94.752 56.1285C94.6947 56.2594 94.6674 56.4016 94.672 56.5445V56.6565C94.672 56.8325 94.832 56.8485 95.152 56.6565C95.434 56.5113 95.7359 56.4088 96.048 56.3525C96.1113 56.3367 96.1777 56.3388 96.2399 56.3586C96.302 56.3784 96.3575 56.415 96.4 56.4645C96.5091 56.6056 96.5606 56.7829 96.544 56.9605V57.1685C96.5385 57.4766 96.444 57.7767 96.272 58.0325C96.0893 58.3109 95.8424 58.5413 95.552 58.7045L94.912 59.0885C94.8073 59.1651 94.6877 59.2189 94.561 59.2465C94.4342 59.274 94.3031 59.2747 94.176 59.2485C94.032 59.1045 93.952 58.9125 93.952 58.5925Z" fill="white"/>
<path d="M102.624 54.5605L100.672 55.6965C100.592 55.6965 100.544 55.6965 100.544 55.6965V52.0645C100.546 52.0239 100.559 51.9845 100.581 51.9507C100.604 51.9169 100.635 51.8898 100.672 51.8725L101.184 51.5845H101.312V54.5605L102.56 53.8405H102.688V54.4005C102.688 54.43 102.683 54.4594 102.672 54.4869C102.661 54.5143 102.645 54.5393 102.624 54.5605Z" fill="white"/>
<path d="M105.28 53.0243L103.344 54.1443H103.216V50.5283C103.218 50.4877 103.231 50.4484 103.253 50.4146C103.276 50.3807 103.307 50.3537 103.344 50.3363L105.28 49.2163H105.408V49.6323C105.406 49.6729 105.393 49.7122 105.371 49.7461C105.348 49.7799 105.317 49.8069 105.28 49.8243L104.048 50.5283C104.048 50.5283 104.048 50.5283 104.048 50.6403V51.4083L105.056 50.8163H105.184V51.2163C105.182 51.2569 105.169 51.2962 105.147 51.3301C105.124 51.3639 105.093 51.3909 105.056 51.4083L104.048 52.0003C104.041 52.0153 104.037 52.0317 104.037 52.0483C104.037 52.0649 104.041 52.0813 104.048 52.0963V52.9283L105.28 52.2243H105.408V52.8003C105.418 52.8469 105.411 52.8956 105.387 52.937C105.364 52.9784 105.325 53.0095 105.28 53.0243Z" fill="white"/>
<defs>
<linearGradient id="paint0_linear_517_16371" x1="143.296" y1="88.9283" x2="141.728" y2="88.9283" gradientUnits="userSpaceOnUse">
<stop stop-color="#AABAD6"/>
<stop offset="1" stop-color="#96AAC9"/>
</linearGradient>
<linearGradient id="paint1_linear_517_16371" x1="143.296" y1="88.9282" x2="141.728" y2="88.9282" gradientUnits="userSpaceOnUse">
<stop stop-color="#AABAD6"/>
<stop offset="1" stop-color="#96AAC9"/>
</linearGradient>
<linearGradient id="paint2_linear_517_16371" x1="17.04" y1="110.368" x2="15.456" y2="110.368" gradientUnits="userSpaceOnUse">
<stop stop-color="#AABAD6"/>
<stop offset="1" stop-color="#96AAC9"/>
</linearGradient>
<linearGradient id="paint3_linear_517_16371" x1="17.04" y1="110.368" x2="15.456" y2="110.368" gradientUnits="userSpaceOnUse">
<stop stop-color="#AABAD6"/>
<stop offset="1" stop-color="#96AAC9"/>
</linearGradient>
<linearGradient id="paint4_linear_517_16371" x1="54.992" y1="142.72" x2="81.552" y2="125.856" gradientUnits="userSpaceOnUse">
<stop offset="0.01" stop-color="#A39EC3"/>
<stop offset="0.26" stop-color="#B0ABCF"/>
<stop offset="0.66" stop-color="#BEBADC"/>
<stop offset="0.99" stop-color="#C3BFE0"/>
</linearGradient>
<linearGradient id="paint5_linear_517_16371" x1="40.752" y1="120.512" x2="67.52" y2="103.504" gradientUnits="userSpaceOnUse">
<stop offset="0.01" stop-color="#A39EC3"/>
<stop offset="0.26" stop-color="#B0ABCF"/>
<stop offset="0.66" stop-color="#BEBADC"/>
<stop offset="0.99" stop-color="#C3BFE0"/>
</linearGradient>
<linearGradient id="paint6_linear_517_16371" x1="49.504" y1="141.456" x2="76.048" y2="124.592" gradientUnits="userSpaceOnUse">
<stop offset="0.01" stop-color="#A39EC3"/>
<stop offset="0.26" stop-color="#B0ABCF"/>
<stop offset="0.66" stop-color="#BEBADC"/>
<stop offset="0.99" stop-color="#C3BFE0"/>
</linearGradient>
<linearGradient id="paint7_linear_517_16371" x1="52.816" y1="139.344" x2="79.36" y2="122.48" gradientUnits="userSpaceOnUse">
<stop offset="0.01" stop-color="#A39EC3"/>
<stop offset="0.26" stop-color="#B0ABCF"/>
<stop offset="0.66" stop-color="#BEBADC"/>
<stop offset="0.99" stop-color="#C3BFE0"/>
</linearGradient>
<linearGradient id="paint8_linear_517_16371" x1="16.96" y1="107.072" x2="160.576" y2="78.4159" gradientUnits="userSpaceOnUse">
<stop stop-color="#F86400"/>
<stop offset="0.27" stop-color="#F86B00"/>
<stop offset="0.67" stop-color="#F77F00"/>
<stop offset="1" stop-color="#F79500"/>
</linearGradient>
<linearGradient id="paint9_linear_517_16371" x1="10.896" y1="125.824" x2="76.368" y2="93.7921" gradientUnits="userSpaceOnUse">
<stop offset="0.01" stop-color="#C7C2E2"/>
<stop offset="0.02" stop-color="#C7C2E2"/>
<stop offset="0.99" stop-color="#E9E6FF"/>
</linearGradient>
<linearGradient id="paint10_linear_517_16371" x1="-6.11199" y1="130.656" x2="58.064" y2="111.328" gradientUnits="userSpaceOnUse">
<stop offset="0.01" stop-color="#C7C2E2"/>
<stop offset="0.02" stop-color="#C7C2E2"/>
<stop offset="0.99" stop-color="#E9E6FF"/>
</linearGradient>
<linearGradient id="paint11_linear_517_16371" x1="38.224" y1="119.104" x2="45.36" y2="116.432" gradientUnits="userSpaceOnUse">
<stop offset="0.01" stop-color="#857FAA"/>
<stop offset="0.22" stop-color="#8F89B4"/>
<stop offset="0.64" stop-color="#9D98C2"/>
<stop offset="0.99" stop-color="#A29DC7"/>
</linearGradient>
<linearGradient id="paint12_linear_517_16371" x1="124.368" y1="73.4562" x2="110.88" y2="73.4562" gradientUnits="userSpaceOnUse">
<stop stop-color="#AABAD6"/>
<stop offset="1" stop-color="#96AAC9"/>
</linearGradient>
<linearGradient id="paint13_linear_517_16371" x1="72.768" y1="109.36" x2="137.936" y2="109.36" gradientUnits="userSpaceOnUse">
<stop stop-color="#F85000"/>
<stop offset="0.25" stop-color="#F85700"/>
<stop offset="0.62" stop-color="#F76B00"/>
<stop offset="1" stop-color="#F78600"/>
</linearGradient>
<linearGradient id="paint14_linear_517_16371" x1="137.936" y1="77.2964" x2="84.096" y2="77.2964" gradientUnits="userSpaceOnUse">
<stop stop-color="#F85000"/>
<stop offset="0.25" stop-color="#F85700"/>
<stop offset="0.62" stop-color="#F76B00"/>
<stop offset="1" stop-color="#F78600"/>
</linearGradient>
<linearGradient id="paint15_linear_517_16371" x1="72.736" y1="61.2163" x2="45.232" y2="61.2163" gradientUnits="userSpaceOnUse">
<stop stop-color="#AABAD6"/>
<stop offset="1" stop-color="#96AAC9"/>
</linearGradient>
<linearGradient id="paint16_linear_517_16371" x1="118.416" y1="56.0804" x2="72.736" y2="56.0804" gradientUnits="userSpaceOnUse">
<stop stop-color="#AABAD6"/>
<stop offset="1" stop-color="#96AAC9"/>
</linearGradient>
<linearGradient id="paint17_linear_517_16371" x1="118.4" y1="45.6005" x2="45.232" y2="45.6005" gradientUnits="userSpaceOnUse">
<stop offset="0.01" stop-color="#C7C2E2"/>
<stop offset="0.02" stop-color="#C7C2E2"/>
<stop offset="0.99" stop-color="#E9E6FF"/>
</linearGradient>
<linearGradient id="paint18_linear_517_16371" x1="116.048" y1="55.1044" x2="102.112" y2="41.1844" gradientUnits="userSpaceOnUse">
<stop offset="0.23" stop-color="#F86400"/>
<stop offset="0.34" stop-color="#F86604"/>
<stop offset="0.44" stop-color="#F86D0F"/>
<stop offset="0.53" stop-color="#F97922"/>
<stop offset="0.62" stop-color="#FA893D"/>
<stop offset="0.71" stop-color="#FB9E5F"/>
<stop offset="0.81" stop-color="#FCB88A"/>
<stop offset="0.9" stop-color="#FDD6BC"/>
<stop offset="0.98" stop-color="#FFF8F4"/>
<stop offset="1" stop-color="white"/>
</linearGradient>
<linearGradient id="paint19_linear_517_16371" x1="105.76" y1="64.7683" x2="92.144" y2="51.1523" gradientUnits="userSpaceOnUse">
<stop offset="0.23" stop-color="#F86400"/>
<stop offset="0.34" stop-color="#F86604"/>
<stop offset="0.44" stop-color="#F86D0F"/>
<stop offset="0.53" stop-color="#F97922"/>
<stop offset="0.62" stop-color="#FA893D"/>
<stop offset="0.71" stop-color="#FB9E5F"/>
<stop offset="0.81" stop-color="#FCB88A"/>
<stop offset="0.9" stop-color="#FDD6BC"/>
<stop offset="0.98" stop-color="#FFF8F4"/>
<stop offset="1" stop-color="white"/>
</linearGradient>
<linearGradient id="paint20_linear_517_16371" x1="101.248" y1="71.7283" x2="95.9199" y2="24.8483" gradientUnits="userSpaceOnUse">
<stop offset="0.01" stop-color="#F89100"/>
<stop offset="1" stop-color="#F7AE00"/>
</linearGradient>
</defs>
</svg>
