<svg width="18" height="5" viewBox="0 0 18 5" fill="none" xmlns="http://www.w3.org/2000/svg">
<path d="M5.10448 2.5C5.10448 3.16304 4.83558 3.79893 4.35694 4.26777C3.87831 4.73661 3.22913 5 2.55224 5C1.87534 5 1.22617 4.73661 0.747534 4.26777C0.268896 3.79893 0 3.16304 0 2.5C0 1.83696 0.268896 1.20107 0.747534 0.732233C1.22617 0.263392 1.87534 0 2.55224 0C3.22913 0 3.87831 0.263392 4.35694 0.732233C4.83558 1.20107 5.10448 1.83696 5.10448 2.5Z" fill="#7F7F7F"/>
<path d="M11.5522 2.5C11.5522 3.16304 11.2833 3.79893 10.8047 4.26777C10.3261 4.73661 9.67689 5 8.99999 5C8.3231 5 7.67393 4.73661 7.19529 4.26777C6.71665 3.79893 6.44775 3.16304 6.44775 2.5C6.44775 1.83696 6.71665 1.20107 7.19529 0.732233C7.67393 0.263392 8.3231 0 8.99999 0C9.67689 0 10.3261 0.263392 10.8047 0.732233C11.2833 1.20107 11.5522 1.83696 11.5522 2.5Z" fill="#7F7F7F"/>
<path d="M18 2.5C18 3.16304 17.7311 3.79893 17.2525 4.26777C16.7738 4.73661 16.1246 5 15.4477 5C14.7709 5 14.1217 4.73661 13.643 4.26777C13.1644 3.79893 12.8955 3.16304 12.8955 2.5C12.8955 1.83696 13.1644 1.20107 13.643 0.732233C14.1217 0.263392 14.7709 0 15.4477 0C16.1246 0 16.7738 0.263392 17.2525 0.732233C17.7311 1.20107 18 1.83696 18 2.5Z" fill="#7F7F7F"/>
</svg>
