<svg width="24" height="22" viewBox="0 0 24 22" fill="none" xmlns="http://www.w3.org/2000/svg">
<path d="M22.5707 8.85969L3.20688 0.824847C2.39111 0.486316 1.4695 0.635238 0.80177 1.2133C0.134035 1.79146 -0.145246 2.68227 0.0730042 3.53807L1.79655 10.2971H10.2353C10.6236 10.2971 10.9384 10.6119 10.9384 11.0002C10.9384 11.3885 10.6236 11.7034 10.2353 11.7034H1.79655L0.0730042 18.4624C-0.145246 19.3182 0.133988 20.209 0.80177 20.7871C1.47086 21.3664 2.39257 21.5135 3.20693 21.1756L22.5707 13.1408C23.4523 12.775 24 11.9548 24 11.0002C24 10.0457 23.4523 9.22546 22.5707 8.85969Z" fill="#0E65A3"/>
</svg>
