<svg width="24" height="24" viewBox="0 0 24 24" fill="none" xmlns="http://www.w3.org/2000/svg">
<path d="M10.4908 12.7515H4.05662C3.66729 12.7515 3.35168 13.0671 3.35168 13.4564V19.8906C3.35168 20.28 3.66729 20.5956 4.05662 20.5956H10.4908C10.8802 20.5956 11.1958 20.28 11.1958 19.8906V13.4564C11.1958 13.0671 10.8802 12.7515 10.4908 12.7515Z" fill="#737373"/>
<path d="M10.4908 2.91455H4.05662C3.66729 2.91455 3.35168 3.23016 3.35168 3.61949V10.0537C3.35168 10.443 3.66729 10.7587 4.05662 10.7587H10.4908C10.8802 10.7587 11.1958 10.443 11.1958 10.0537V3.61949C11.1958 3.23016 10.8802 2.91455 10.4908 2.91455Z" fill="#0E65A3"/>
<path d="M19.9417 2.91455H13.5074C13.1181 2.91455 12.8025 3.23016 12.8025 3.61949V10.0537C12.8025 10.443 13.1181 10.7587 13.5074 10.7587H19.9417C20.331 10.7587 20.6466 10.443 20.6466 10.0537V3.61949C20.6466 3.23016 20.331 2.91455 19.9417 2.91455Z" fill="#F86400"/>
<path d="M16.7249 20.5939C18.8905 20.5939 20.6461 18.8383 20.6461 16.6727C20.6461 14.507 18.8905 12.7515 16.7249 12.7515C14.5593 12.7515 12.8037 14.507 12.8037 16.6727C12.8037 18.8383 14.5593 20.5939 16.7249 20.5939Z" fill="white"/>
</svg>
