<svg width="32" height="32" viewBox="0 0 32 32" fill="none" xmlns="http://www.w3.org/2000/svg">
<rect width="32" height="32" rx="8" fill="white"/>
<path d="M14 18C14.4295 18.5741 14.9774 19.0491 15.6066 19.3929C16.2357 19.7367 16.9315 19.9411 17.6467 19.9923C18.3618 20.0435 19.0796 19.9403 19.7513 19.6897C20.4231 19.4392 21.0331 19.047 21.54 18.54L24.54 15.54C25.4508 14.597 25.9548 13.3339 25.9434 12.023C25.932 10.712 25.4061 9.45791 24.4791 8.53087C23.5521 7.60383 22.298 7.07799 20.987 7.0666C19.676 7.0552 18.413 7.55918 17.47 8.46997L15.75 10.18" stroke="#F86400" stroke-width="2" stroke-linecap="round" stroke-linejoin="round"/>
<path d="M18.0002 16C17.5707 15.4259 17.0228 14.9508 16.3936 14.607C15.7645 14.2633 15.0687 14.0589 14.3535 14.0076C13.6384 13.9564 12.9206 14.0596 12.2489 14.3102C11.5771 14.5608 10.9671 14.9529 10.4602 15.46L7.4602 18.46C6.54941 19.403 6.04544 20.666 6.05683 21.977C6.06822 23.288 6.59407 24.542 7.52111 25.4691C8.44815 26.3961 9.70221 26.922 11.0132 26.9334C12.3242 26.9447 13.5872 26.4408 14.5302 25.53L16.2402 23.82" stroke="#F86400" stroke-width="2" stroke-linecap="round" stroke-linejoin="round"/>
</svg>
