<svg width="160" height="160" viewBox="0 0 160 160" fill="none" xmlns="http://www.w3.org/2000/svg">
<path d="M76.672 152.32C61.488 152.08 46.4 151.152 32 145.712C26.7358 143.818 21.7971 141.12 17.36 137.712C5.23196 128.112 5.91996 116.912 19.232 109.04C25.4302 105.3 32.5369 103.336 39.776 103.36C62.176 103.552 84.224 100.32 106.32 96.6883C120.576 94.3523 133.52 100.496 145.2 108.256C152 112.8 153.024 120.864 148.8 128.128C144.752 135.056 138.592 139.44 131.2 142.528C113.906 149.559 95.3319 152.894 76.672 152.32Z" fill="#D4E6E9"/>
<g style="mix-blend-mode:multiply">
<g style="mix-blend-mode:multiply">
<path d="M101.744 88.1604C108.144 84.5124 118.128 84.3524 124.144 87.8084C133.248 93.0404 136.64 107.536 136.816 108.288C135.504 108.192 110.304 106.288 101.2 101.072C95.1839 97.6004 95.4079 91.8244 101.744 88.1604Z" fill="#EFDECE"/>
</g>
</g>
<path d="M136.32 109.456C135.766 109.732 135.155 109.876 134.536 109.876C133.917 109.876 133.306 109.732 132.752 109.456C131.76 108.88 131.76 107.952 132.752 107.392C133.306 107.116 133.917 106.972 134.536 106.972C135.155 106.972 135.766 107.116 136.32 107.392C137.296 107.968 137.296 108.896 136.32 109.456Z" fill="#FCFCFC"/>
<path d="M137.088 82.2399L130.176 78.2079C132.25 76.8578 133.977 75.0368 135.214 72.893C136.451 70.7493 137.165 68.3436 137.296 65.8719C137.385 64.9933 137.239 64.1069 136.874 63.303C136.508 62.4991 135.936 61.8065 135.216 61.2959L142.128 65.3119C142.85 65.8218 143.424 66.5137 143.793 67.3174C144.161 68.1212 144.31 69.008 144.224 69.8879C144.09 72.3629 143.373 74.7713 142.133 76.9175C140.894 79.0637 139.165 80.8872 137.088 82.2399Z" fill="#FC9B00"/>
<path d="M137.088 82.2399L130.176 78.2079C132.25 76.8578 133.977 75.0368 135.214 72.893C136.451 70.7493 137.165 68.3436 137.296 65.8719C137.385 64.9933 137.239 64.1069 136.874 63.303C136.508 62.4991 135.936 61.8065 135.216 61.2959L142.128 65.3119C142.85 65.8218 143.424 66.5137 143.793 67.3174C144.161 68.1212 144.31 69.008 144.224 69.8879C144.09 72.3629 143.373 74.7713 142.133 76.9175C140.894 79.0637 139.165 80.8872 137.088 82.2399Z" fill="#FC9B00"/>
<path d="M132.016 82.736L125.088 78.704C125.903 79.0826 126.805 79.2362 127.699 79.149C128.594 79.0618 129.449 78.7369 130.176 78.208L137.088 82.24C136.362 82.7644 135.51 83.0866 134.619 83.1738C133.728 83.2609 132.83 83.1099 132.016 82.736Z" fill="#FC9B00"/>
<path d="M137.04 65.808L130.128 61.792C130.853 61.26 131.709 60.9332 132.604 60.8459C133.499 60.7586 134.401 60.9141 135.216 61.296L142.128 65.312C141.311 64.9384 140.411 64.7875 139.517 64.8746C138.623 64.9617 137.769 65.2838 137.04 65.808Z" fill="#CEE1ED"/>
<path d="M132.016 82.736L125.088 78.704C124.366 78.1945 123.793 77.5021 123.428 76.6979C123.062 75.8937 122.917 75.0067 123.008 74.128C123.134 71.6551 123.845 69.2475 125.083 67.1029C126.321 64.9584 128.05 63.1382 130.128 61.792L137.04 65.808C134.969 67.1618 133.245 68.9838 132.009 71.1267C130.772 73.2697 130.056 75.6735 129.92 78.144C129.836 79.0259 129.986 79.9144 130.354 80.7203C130.722 81.5262 131.295 82.2213 132.016 82.736Z" fill="#CEE1ED"/>
<path d="M137.04 65.8083C140.992 63.5363 144.208 65.3603 144.224 69.8883C144.09 72.3632 143.373 74.7717 142.133 76.9179C140.894 79.0641 139.165 80.8876 137.088 82.2403C133.152 84.5123 129.936 82.6883 129.92 78.1443C130.056 75.6738 130.772 73.2699 132.009 71.127C133.245 68.9841 134.969 67.1621 137.04 65.8083Z" fill="#FCFCFC"/>
<path d="M137.024 59.4561L130.112 55.4241C133.632 53.3921 136.832 53.2001 139.136 54.5441L146.064 58.5601C143.744 57.2321 140.56 57.4081 137.024 59.4561Z" fill="#FC9B00"/>
<path d="M137.024 59.4563C144.032 55.4083 149.728 58.6403 149.824 66.7043C149.824 78.8163 137.856 104.8 137.232 106.176C136.592 105.536 124.432 93.4723 124.432 81.3443C124.657 76.9616 125.915 72.6944 128.104 68.8905C130.292 65.0867 133.348 61.854 137.024 59.4563ZM137.024 82.2403C139.101 80.8876 140.83 79.0641 142.069 76.9179C143.309 74.7716 144.026 72.3632 144.16 69.8883C144.16 65.3603 140.96 63.4883 136.976 65.8083C134.905 67.1621 133.181 68.9841 131.944 71.127C130.708 73.2699 129.992 75.6738 129.856 78.1443C129.856 82.6883 133.056 84.5443 137.024 82.2403Z" fill="#FFBB00"/>
<path d="M137.168 106.176L130.24 102.144C129.6 101.504 117.44 89.4403 117.44 77.3123C117.44 69.3123 123.088 59.4723 130.096 55.4243L137.008 59.4563C133.324 61.8487 130.258 65.079 128.061 68.8832C125.864 72.6874 124.599 76.9574 124.368 81.3443C124.368 93.4723 136.512 105.536 137.168 106.176Z" fill="#FC9B00"/>
<path d="M139.2 66.9764L137.12 65.7764C137.845 65.2444 138.701 64.9175 139.596 64.8303C140.491 64.743 141.394 64.8985 142.208 65.2804L144.288 66.4804C143.472 66.1051 142.571 65.9533 141.677 66.0405C140.783 66.1276 139.928 66.4506 139.2 66.9764Z" fill="#CEE1ED"/>
<path d="M134.096 83.9044L132.016 82.6884C131.293 82.1801 130.719 81.4879 130.353 80.6834C129.988 79.8789 129.844 78.9912 129.936 78.1124C130.066 75.6404 130.779 73.2342 132.016 71.0903C133.254 68.9463 134.981 67.1255 137.056 65.7764L139.136 66.9764C137.061 68.3255 135.334 70.1463 134.096 72.2903C132.859 74.4342 132.146 76.8404 132.016 79.3124C131.926 80.1933 132.071 81.0825 132.436 81.8892C132.801 82.6959 133.374 83.3912 134.096 83.9044Z" fill="#CEE1ED"/>
<path d="M139.2 66.9762C143.136 64.7042 146.352 66.5282 146.368 71.0562C146.231 73.5344 145.511 75.9451 144.265 78.0917C143.019 80.2384 141.284 82.0601 139.2 83.4082C135.248 85.6802 132.048 83.8562 132.032 79.3122C132.167 76.836 132.887 74.427 134.133 72.2827C135.379 70.1385 137.116 68.32 139.2 66.9762Z" fill="#FCFCFC"/>
<path d="M51.1359 118.128L53.4399 116.8L36.8959 107.248L34.5919 108.576L51.1359 118.128Z" fill="#E3A05D"/>
<path d="M34.8479 102.992L37.1519 101.664V107.392L34.8479 108.72V102.992Z" fill="#B5562A"/>
<path d="M52.064 117.6L53.44 116.8L37.152 107.392L35.776 108.192L52.064 117.6Z" fill="#E6D1C1"/>
<path d="M37.152 83.0562V107.392L53.44 116.8V92.4642L37.152 83.0562ZM38.304 85.2002L52.16 93.2002V114.576L38.304 106.576V85.2002Z" fill="#704B3C"/>
<path d="M53.0879 114.032L39.2319 106.032V84.6724L53.0879 92.6724V114.032Z" fill="#76787A"/>
<path d="M38.304 106.56L39.232 106.032L53.088 114.032L52.16 114.576L38.304 106.56Z" fill="#704332"/>
<path d="M38.304 106.56L39.232 106.032V84.6724L38.304 85.2004V106.56Z" fill="#493127"/>
<path d="M35.776 83.8562L37.152 83.0562V107.392L35.776 108.192V83.8562Z" fill="#B8977D"/>
<path d="M35.776 102.464L37.152 101.664V107.392L35.776 108.192V102.464Z" fill="#B8977D"/>
<path d="M32.048 91.9043L23.376 96.8963L24.752 97.6963L33.424 92.7043L32.048 91.9043Z" fill="#FFB774"/>
<path d="M92.288 84.3044L90.896 83.5044L90.912 107.84L92.288 108.624V84.3044Z" fill="#B8977D"/>
<path d="M93.216 103.44L90.912 102.112V107.84L93.216 109.168V103.44Z" fill="#B5562A"/>
<path d="M92.288 84.3044L90.896 83.5044L90.912 107.84L92.288 108.624V84.3044Z" fill="#B8977D"/>
<path d="M72.1919 121.296L69.8879 119.968L90.9119 107.84L93.2159 109.168L72.1919 121.296Z" fill="#E3A05D"/>
<path d="M71.2639 120.768L69.8879 119.968L90.9119 107.84L92.2879 108.624L71.2639 120.768Z" fill="#E6D1C1"/>
<path d="M108.256 79.5524L106.864 78.7524V92.8964L108.256 93.6964V79.5524Z" fill="#B8977D"/>
<path d="M113.632 87.2964L116.48 88.9444L115.104 89.7444L112.256 88.0964L113.632 87.2964Z" fill="#FFB774"/>
<path d="M69.8879 95.6324V120L90.9119 107.84V83.5044L69.8879 95.6324ZM89.7599 107.008L71.1679 117.744V96.3844L89.7599 85.6484V107.008Z" fill="#754F3F"/>
<path d="M70.24 117.216L88.832 106.48V85.1201L70.24 95.8561V117.216Z" fill="#76787A"/>
<path d="M89.76 107.008L88.832 106.48L70.24 117.216L71.168 117.744L89.76 107.008Z" fill="#704332"/>
<path d="M89.7599 107.008L88.8319 106.48V85.1201L89.7599 85.6481V107.008Z" fill="#493127"/>
<path d="M97.4719 106.112L104.624 101.984V80.4805L97.4719 84.6085V106.112Z" fill="#76787A"/>
<path d="M105.536 102.512L104.624 101.984L97.4719 106.112L98.3839 106.64L105.536 102.512Z" fill="#704332"/>
<path d="M105.536 102.512L104.624 101.984V80.4805L105.536 81.0085V102.512Z" fill="#493127"/>
<path d="M97.0559 84.4164V108.896L106.864 103.232V78.7524L97.0559 84.4164ZM105.6 102.512L98.4479 106.64V85.1364L105.6 81.0084V102.512Z" fill="#754F3F"/>
<path d="M115.104 53.8721V89.7441L108.256 93.6961V79.5521L98.4479 85.2161V99.3601L92.2879 102.912V84.3041L71.2639 96.4321V115.056L64.4159 119.008V83.1361L115.104 53.8721Z" fill="#F1D7BF"/>
<path d="M93.2159 103.44L99.3599 99.8882V110.224L64.4159 130.4V120.064L72.1919 115.584V121.296L93.2159 109.168V103.44Z" fill="#C48E5A"/>
<path d="M116.944 89.7441V100.08L109.168 104.56V94.2241L116.944 89.7441Z" fill="#C48E5A"/>
<path d="M72.6559 118.896L64.4159 123.648V120.592L72.6559 115.84V118.896Z" fill="#EBA96B"/>
<path d="M117.856 92.7841L109.632 97.5521V94.4961L117.856 89.7441V92.7841Z" fill="#EBA96B"/>
<path d="M99.8239 103.2L93.6639 106.752V103.712L99.8239 100.16V103.2Z" fill="#EBA96B"/>
<path d="M98.448 99.3604L92.288 102.912L93.664 103.712L99.824 100.16L98.448 99.3604Z" fill="#FFB774"/>
<path d="M116.48 88.9443L108.256 93.6963L109.632 94.4963L117.856 89.7443L116.48 88.9443Z" fill="#FFB774"/>
<path d="M93.2159 106.496L93.6639 106.752V103.712L93.2159 103.44V106.496Z" fill="#B5562A"/>
<path d="M34.848 102.992L24.304 96.896V107.248L64.416 130.4V120.064L51.136 112.4V118.128L34.848 108.72V102.992Z" fill="#AB683E"/>
<path d="M64.416 120.592L50.432 112.528V115.568L64.416 123.648V120.592Z" fill="#DE8745"/>
<path d="M109.168 97.2801L109.632 97.5521V94.4961L109.168 94.2241V97.2801Z" fill="#B5562A"/>
<path d="M109.168 94.2245L106.864 92.8965V103.232L109.168 104.56V94.2245Z" fill="#B5562A"/>
<path d="M34.384 103.264L23.376 96.896V99.952L34.384 106.32V103.264Z" fill="#DE8745"/>
<path d="M51.808 111.728L64.416 119.008L63.04 119.808L50.432 112.528L51.808 111.728Z" fill="#FFB774"/>
<path d="M24.752 96.1123L35.776 102.464L34.384 103.264L23.376 96.8963L24.752 96.1123Z" fill="#FFB774"/>
<path d="M71.2639 115.056L63.0399 119.808L64.4159 120.592L72.6559 115.84L71.2639 115.056Z" fill="#FFB774"/>
<path d="M34.8479 106.048L34.3839 106.32V103.264L34.8479 102.992V106.048Z" fill="#B5562A"/>
<path d="M26.1439 61.04V96.896L35.7759 102.464V83.856L51.8079 93.104V111.728L64.4159 119.008V83.136L26.1439 61.04Z" fill="#D9C1AC"/>
<path d="M104.352 75.9844L102.32 77.1524L104.336 78.4004L106.368 77.2324L104.352 75.9844Z" fill="#FF2F0C"/>
<path d="M109.152 81.1684L107.136 82.3364L104.336 78.4004L106.368 77.2324L109.152 81.1684Z" fill="#FF664D"/>
<path d="M109.152 81.1685L107.2 82.3365V84.3525C107.199 84.5026 107.238 84.6504 107.312 84.7807C107.387 84.9109 107.495 85.019 107.625 85.0939C107.755 85.1688 107.903 85.2077 108.053 85.2067C108.204 85.2058 108.351 85.165 108.48 85.0885L108.24 85.2325C108.538 85.0607 108.784 84.8134 108.956 84.5156C109.127 84.2178 109.217 83.88 109.216 83.5365L109.152 81.1685Z" fill="#FF2F0C"/>
<path d="M106.384 74.8164L104.352 75.9844L106.368 77.2324L108.4 76.0644L106.384 74.8164Z" fill="#DBE5FF"/>
<path d="M111.184 80.0005L109.152 81.1684L106.368 77.2325L108.4 76.0645L111.184 80.0005Z" fill="url(#paint0_linear_517_18157)"/>
<path d="M111.184 80L109.152 81.168V83.2C109.151 83.352 109.191 83.5014 109.266 83.6333C109.342 83.7652 109.451 83.8748 109.582 83.9511C109.714 84.0273 109.863 84.0676 110.015 84.0678C110.167 84.0679 110.316 84.028 110.448 83.952L110.208 84.096C110.506 83.9242 110.752 83.6769 110.924 83.3791C111.095 83.0813 111.185 82.7436 111.184 82.4V80Z" fill="#DBE5FF"/>
<path d="M102.32 77.1523L100.304 78.3203L102.32 79.5683L104.336 78.4003L102.32 77.1523Z" fill="#DBE5FF"/>
<path d="M107.136 82.3364L105.104 83.5204L102.32 79.5684L104.336 78.4004L107.136 82.3364Z" fill="url(#paint1_linear_517_18157)"/>
<path d="M107.2 82.3364L105.168 83.5044V85.5204C105.17 85.671 105.212 85.8185 105.288 85.9481C105.365 86.0778 105.474 86.1851 105.605 86.2595C105.736 86.3339 105.884 86.3728 106.035 86.3722C106.186 86.3717 106.334 86.3318 106.464 86.2564L106.208 86.4004C106.507 86.2294 106.757 85.9827 106.931 85.6851C107.105 85.3874 107.198 85.0492 107.2 84.7044V82.3364Z" fill="#DBE5FF"/>
<path d="M108.4 73.6323L106.384 74.8163L108.4 76.0643L110.416 74.8963L108.4 73.6323Z" fill="#FF2F0C"/>
<path d="M113.216 78.8325L111.184 80.0005L108.4 76.0645L110.416 74.8965L113.216 78.8325Z" fill="#FF664D"/>
<path d="M113.216 78.832L111.184 80V82C111.183 82.152 111.223 82.3015 111.298 82.4334C111.374 82.5652 111.483 82.6748 111.614 82.7511C111.746 82.8274 111.895 82.8676 112.047 82.8678C112.199 82.868 112.348 82.828 112.48 82.752L112.224 82.896C112.522 82.7238 112.771 82.4768 112.945 82.1795C113.119 81.8821 113.212 81.5445 113.216 81.2V78.832Z" fill="#FF2F0C"/>
<path d="M100.304 78.3203L98.272 79.4883L100.288 80.7363L102.32 79.5683L100.304 78.3203Z" fill="#FF2F0C"/>
<path d="M105.104 83.5204L103.072 84.6884L100.288 80.7364L102.32 79.5684L105.104 83.5204Z" fill="#FF664D"/>
<path d="M103.072 84.6884L100.288 80.7364L98.272 79.4404V84.0484C98.272 84.4597 98.3799 84.8637 98.5848 85.2203C98.7898 85.5768 99.0846 85.8734 99.44 86.0804L99.76 86.2564C99.8904 86.3318 100.038 86.3717 100.189 86.3722C100.34 86.3728 100.488 86.3339 100.619 86.2595C100.75 86.1851 100.859 86.0778 100.936 85.9481C101.012 85.8185 101.054 85.6711 101.056 85.5204V85.6644C101.057 86.0733 101.166 86.4747 101.371 86.8284C101.576 87.1822 101.87 87.476 102.224 87.6804C102.485 87.8291 102.78 87.9073 103.08 87.9073C103.38 87.9073 103.675 87.8291 103.936 87.6804C104.29 87.476 104.584 87.1822 104.789 86.8284C104.994 86.4747 105.103 86.0733 105.104 85.6644V83.5044L103.072 84.6884Z" fill="#FF2F0C"/>
<path d="M76.6079 92L74.5759 93.168L76.5919 94.416L78.6239 93.248L76.6079 92Z" fill="#FF2F0C"/>
<path d="M81.4079 97.2001L79.3759 98.368L76.5919 94.416L78.6239 93.248L81.4079 97.2001Z" fill="#FF664D"/>
<path d="M81.408 97.2002L79.376 98.3682V100.368C79.38 100.518 79.4223 100.665 79.499 100.794C79.5756 100.923 79.6841 101.031 79.814 101.106C79.9439 101.181 80.091 101.222 80.2412 101.225C80.3913 101.227 80.5396 101.191 80.672 101.12L80.432 101.264C80.7308 101.09 80.9784 100.84 81.1497 100.539C81.3211 100.239 81.4101 99.8982 81.408 99.5522V97.2002Z" fill="#FF2F0C"/>
<path d="M78.6239 90.832L76.6079 92L78.6239 93.248L80.6399 92.08L78.6239 90.832Z" fill="#DBE5FF"/>
<path d="M83.4399 96.0321L81.4079 97.2001L78.6239 93.2481L80.6399 92.0801L83.4399 96.0321Z" fill="url(#paint2_linear_517_18157)"/>
<path d="M83.44 96L81.408 97.168V99.2C81.4101 99.3506 81.4516 99.4981 81.5283 99.6277C81.605 99.7574 81.7142 99.8647 81.8452 99.9391C81.9762 100.013 82.1244 100.052 82.275 100.052C82.4256 100.051 82.5735 100.011 82.704 99.936L82.448 100.08C82.7474 99.909 82.9967 99.6623 83.1708 99.3647C83.3449 99.067 83.4377 98.7288 83.44 98.384V96Z" fill="#DBE5FF"/>
<path d="M74.5759 93.1685L72.5439 94.3365L74.5599 95.5845L76.5919 94.4165L74.5759 93.1685Z" fill="#DBE5FF"/>
<path d="M79.3759 98.368L77.3599 99.536L74.5599 95.584L76.5919 94.416L79.3759 98.368Z" fill="url(#paint3_linear_517_18157)"/>
<path d="M79.376 98.3682L77.36 99.5362V101.536C77.3593 101.688 77.3988 101.838 77.4743 101.969C77.5499 102.101 77.6589 102.211 77.7904 102.287C77.9218 102.364 78.0711 102.404 78.2231 102.404C78.375 102.404 78.5244 102.364 78.656 102.288L78.4 102.4C78.6829 102.236 78.9203 102.003 79.0907 101.724C79.2611 101.444 79.3592 101.127 79.376 100.8V98.3682Z" fill="#DBE5FF"/>
<path d="M80.6559 89.6641L78.6239 90.8321L80.6399 92.0801L82.6719 90.9121L80.6559 89.6641Z" fill="#FF2F0C"/>
<path d="M85.456 94.8481L83.44 96.0321L80.64 92.0801L82.672 90.9121L85.456 94.8481Z" fill="#FF664D"/>
<path d="M85.456 94.8481L83.44 96.0001V98.0002C83.4388 98.1503 83.4776 98.2981 83.5523 98.4284C83.6271 98.5586 83.735 98.6667 83.8652 98.7416C83.9954 98.8165 84.1432 98.8554 84.2933 98.8544C84.4435 98.8535 84.5907 98.8127 84.72 98.7362L84.48 98.8802C84.7775 98.7084 85.0245 98.4611 85.1958 98.1633C85.3672 97.8655 85.4569 97.5277 85.456 97.1842V94.8481Z" fill="#FF2F0C"/>
<path d="M84.704 87.3281L82.672 88.4961L84.704 89.7441L86.72 88.5761L84.704 87.3281Z" fill="#FF2F0C"/>
<path d="M89.52 92.5122L87.488 93.6802L84.704 89.7442L86.72 88.5762L89.52 92.5122Z" fill="#FF664D"/>
<path d="M89.5039 92.5122L87.4879 93.6802V95.6962C87.49 95.8468 87.5315 95.9943 87.6082 96.1239C87.6849 96.2536 87.7942 96.3609 87.9252 96.4353C88.0562 96.5097 88.2043 96.5486 88.3549 96.548C88.5056 96.5475 88.6535 96.5076 88.7839 96.4322L88.5279 96.5762C88.8255 96.4044 89.0724 96.1571 89.2438 95.8593C89.4151 95.5616 89.5049 95.2238 89.5039 94.8802V92.5122Z" fill="#FF2F0C"/>
<path d="M86.736 86.144L84.704 87.328L86.72 88.576L88.752 87.408L86.736 86.144Z" fill="#DBE5FF"/>
<path d="M91.536 91.3442L89.52 92.5122L86.72 88.5762L88.752 87.4082L91.536 91.3442Z" fill="url(#paint4_linear_517_18157)"/>
<path d="M91.5359 91.3442L89.5039 92.5122V94.5122C89.5033 94.6642 89.5427 94.8137 89.6183 94.9456C89.6938 95.0774 89.8028 95.187 89.9343 95.2633C90.0657 95.3396 90.215 95.3798 90.367 95.38C90.519 95.3802 90.6683 95.3402 90.7999 95.2642L90.5599 95.4082C90.8575 95.2365 91.1044 94.9892 91.2758 94.6914C91.4472 94.3936 91.5369 94.0558 91.5359 93.7122V91.3442Z" fill="#DBE5FF"/>
<path d="M82.672 88.4961L80.656 89.6641L82.672 90.9121L84.704 89.7441L82.672 88.4961Z" fill="#DBE5FF"/>
<path d="M87.488 93.6801L85.456 94.8481L82.672 90.9121L84.704 89.7441L87.488 93.6801Z" fill="url(#paint5_linear_517_18157)"/>
<path d="M87.4879 93.6802L85.4559 94.8482V96.8642C85.4581 97.0148 85.4995 97.1622 85.5762 97.2919C85.6529 97.4215 85.7622 97.5289 85.8932 97.6033C86.0242 97.6777 86.1723 97.7165 86.323 97.716C86.4736 97.7154 86.6215 97.6755 86.7519 97.6002L86.5119 97.7442C86.8144 97.5658 87.0641 97.3104 87.2356 97.004C87.407 96.6976 87.4941 96.3512 87.4879 96.0002V93.6802Z" fill="#DBE5FF"/>
<path d="M88.752 84.9761L86.736 86.1441L88.752 87.4081L90.768 86.2401L88.752 84.9761Z" fill="#FF2F0C"/>
<path d="M93.568 90.1762L91.536 91.3442L88.752 87.4082L90.768 86.2402L93.568 90.1762Z" fill="#FF664D"/>
<path d="M93.5679 90.1763L91.5359 91.3443V93.3443C91.5352 93.4963 91.5747 93.6457 91.6502 93.7776C91.7258 93.9095 91.8348 94.0191 91.9663 94.0953C92.0977 94.1716 92.247 94.2119 92.399 94.212C92.5509 94.2122 92.7003 94.1723 92.8319 94.0963L92.5759 94.2403C92.8743 94.068 93.1227 93.8211 93.2966 93.5237C93.4705 93.2263 93.564 92.8888 93.5679 92.5443V90.1763Z" fill="#FF2F0C"/>
<path d="M90.784 83.8081L88.752 84.9761L90.7679 86.2401L92.7999 85.0561L90.784 83.8081Z" fill="#DBE5FF"/>
<path d="M95.584 89.0082L93.5679 90.1762L90.7679 86.2402L92.7999 85.0562L95.584 89.0082Z" fill="url(#paint6_linear_517_18157)"/>
<path d="M95.5839 89.0083L93.5679 90.1763V92.1763C93.5639 92.3278 93.6006 92.4777 93.6741 92.6102C93.7477 92.7427 93.8554 92.8531 93.9861 92.9299C94.1168 93.0067 94.2656 93.047 94.4172 93.0468C94.5688 93.0465 94.7175 93.0056 94.8479 92.9283L94.6079 93.0723C94.9067 92.8979 95.1543 92.6478 95.3256 92.3473C95.497 92.0467 95.5861 91.7063 95.5839 91.3603V89.0083Z" fill="#DBE5FF"/>
<path d="M92.8159 82.6401L90.7839 83.8081L92.7999 85.0561L94.8319 83.8881L92.8159 82.6401Z" fill="#FF2F0C"/>
<path d="M97.6159 87.8402L95.5839 89.0082L92.7999 85.0562L94.8319 83.8882L97.6159 87.8402Z" fill="#FF664D"/>
<path d="M97.6 87.8403L95.568 89.0083V91.0083C95.5673 91.1603 95.6068 91.3098 95.6823 91.4416C95.7579 91.5735 95.8669 91.6831 95.9984 91.7594C96.1298 91.8357 96.2791 91.8759 96.4311 91.8761C96.583 91.8762 96.7324 91.8363 96.864 91.7603L96.624 91.9043C96.9228 91.7299 97.1704 91.4798 97.3417 91.1793C97.5131 90.8787 97.6022 90.5383 97.6 90.1923V87.8403Z" fill="#FF2F0C"/>
<path d="M72.544 94.3364L70.528 95.5044L72.544 96.7684L74.56 95.5844L72.544 94.3364Z" fill="#FF2F0C"/>
<path d="M77.3599 99.5365L75.3279 100.704L72.5439 96.7685L74.5599 95.5845L77.3599 99.5365Z" fill="#FF664D"/>
<path d="M75.328 100.704L72.544 96.7682L70.528 95.4722V100.08C70.5292 100.489 70.6377 100.89 70.8427 101.244C71.0476 101.598 71.3419 101.892 71.696 102.096L72.0159 102.288C72.1476 102.364 72.2969 102.404 72.4489 102.404C72.6009 102.404 72.7501 102.364 72.8816 102.287C73.013 102.211 73.122 102.101 73.1976 101.969C73.2732 101.838 73.3126 101.688 73.312 101.536V101.68C73.3099 102.09 73.417 102.492 73.6223 102.847C73.8276 103.201 74.1237 103.494 74.4799 103.696C74.736 103.858 75.0329 103.944 75.3359 103.944C75.639 103.944 75.9359 103.858 76.1919 103.696C76.546 103.492 76.8403 103.198 77.0452 102.844C77.2502 102.49 77.3587 102.089 77.3599 101.68V99.5362L75.328 100.704Z" fill="#FF2F0C"/>
<path d="M47.952 77.4082L49.984 78.5922L47.408 80.1282L45.392 78.9602L47.952 77.4082Z" fill="#FF2F0C"/>
<path d="M41.4399 93.7285L43.4719 94.8965L47.4079 80.1285L45.3919 78.9604L41.4399 93.7285Z" fill="#FF664D"/>
<path d="M41.4399 93.728L43.4719 94.896V96.912C43.4698 97.0626 43.4283 97.2101 43.3516 97.3397C43.2749 97.4694 43.1657 97.5767 43.0347 97.6511C42.9037 97.7255 42.7555 97.7644 42.6049 97.7638C42.4543 97.7633 42.3064 97.7234 42.1759 97.648L42.4319 97.792C42.1325 97.621 41.8832 97.3743 41.7091 97.0767C41.535 96.779 41.4422 96.4409 41.4399 96.096V93.728Z" fill="#FF2F0C"/>
<path d="M54.032 80.9282L52.016 82.1442V96.8002C52.0169 96.9499 52.0567 97.0967 52.1314 97.2264C52.2061 97.3561 52.3133 97.4641 52.4423 97.5399C52.5714 97.6157 52.7179 97.6567 52.8675 97.6589C53.0172 97.661 53.1648 97.6243 53.296 97.5522L53.056 97.6962C53.3525 97.5232 53.5985 97.2756 53.7697 96.9781C53.9409 96.6806 54.0314 96.3435 54.032 96.0002V80.9282Z" fill="#FF2F0C"/>
<path d="M45.936 76.2402L47.952 77.4082L45.392 78.9602L43.36 77.7922L45.936 76.2402Z" fill="#DBE5FF"/>
<path d="M39.424 92.56L41.44 93.728L45.392 78.96L43.36 77.792L39.424 92.56Z" fill="url(#paint7_linear_517_18157)"/>
<path d="M39.424 92.5601L41.44 93.7281V95.7441C41.4411 95.8942 41.4023 96.042 41.3276 96.1723C41.2529 96.3025 41.1449 96.4106 41.0147 96.4855C40.8845 96.5604 40.7368 96.5993 40.5866 96.5983C40.4364 96.5974 40.2892 96.5566 40.16 96.4801L40.4 96.6241C40.1024 96.4523 39.8555 96.205 39.6841 95.9072C39.5127 95.6094 39.423 95.2716 39.424 94.9281V92.5601Z" fill="#DBE5FF"/>
<path d="M49.984 78.5923L52.016 79.7603L49.44 81.2963L47.408 80.1283L49.984 78.5923Z" fill="#DBE5FF"/>
<path d="M43.4719 94.8964L45.5039 96.0804L49.4399 81.2964L47.4079 80.1284L43.4719 94.8964Z" fill="url(#paint8_linear_517_18157)"/>
<path d="M43.4719 94.8965L45.5039 96.0805V98.0805C45.5018 98.2311 45.4603 98.3786 45.3836 98.5082C45.3069 98.6379 45.1977 98.7452 45.0667 98.8196C44.9357 98.894 44.7875 98.9328 44.6369 98.9323C44.4863 98.9317 44.3384 98.8918 44.2079 98.8165L44.4479 98.9605C44.1504 98.7887 43.9034 98.5414 43.7321 98.2436C43.5607 97.9458 43.471 97.6081 43.4719 97.2645V94.8965Z" fill="#DBE5FF"/>
<path d="M43.904 75.0723L45.936 76.2403L43.36 77.7923L41.344 76.6243L43.904 75.0723Z" fill="#FF2F0C"/>
<path d="M37.392 91.392L39.424 92.56L43.36 77.792L41.344 76.624L37.392 91.392Z" fill="#FF664D"/>
<path d="M37.392 91.3921L39.424 92.5601V94.5601C39.4246 94.7121 39.3852 94.8615 39.3096 94.9934C39.2341 95.1253 39.1251 95.2349 38.9936 95.3112C38.8621 95.3874 38.7129 95.4277 38.5609 95.4279C38.4089 95.428 38.2596 95.3881 38.128 95.3121L38.384 95.4561C38.0845 95.2851 37.8353 95.0384 37.6612 94.7407C37.4871 94.4431 37.3942 94.1049 37.392 93.7601V91.3921Z" fill="#FF2F0C"/>
<path d="M39.8559 72.7363L41.8879 73.9043L39.3119 75.4563L37.2799 74.2723L39.8559 72.7363Z" fill="#FF2F0C"/>
<path d="M33.344 89.0565L35.376 90.2245L39.312 75.4565L37.28 74.2725L33.344 89.0565Z" fill="#FF664D"/>
<path d="M33.344 89.0562L35.376 90.2242V92.2242C35.3767 92.3761 35.3372 92.5256 35.2617 92.6575C35.1861 92.7893 35.0771 92.8989 34.9456 92.9752C34.8142 93.0515 34.6649 93.0918 34.5129 93.0919C34.361 93.0921 34.2116 93.0521 34.08 92.9762L34.32 93.1202C34.0235 92.9471 33.7775 92.6996 33.6063 92.4021C33.4351 92.1045 33.3446 91.7674 33.344 91.4242V89.0562Z" fill="#FF2F0C"/>
<path d="M37.8239 71.5684L39.8559 72.7364L37.2799 74.2724L35.2639 73.1044L37.8239 71.5684Z" fill="#DBE5FF"/>
<path d="M31.312 87.888L33.344 89.056L37.28 74.272L35.264 73.104L31.312 87.888Z" fill="url(#paint9_linear_517_18157)"/>
<path d="M31.312 87.8882L33.344 89.0562V91.0562C33.3447 91.2082 33.3052 91.3576 33.2297 91.4895C33.1541 91.6214 33.0451 91.731 32.9136 91.8072C32.7822 91.8835 32.6329 91.9238 32.481 91.9239C32.329 91.9241 32.1796 91.8842 32.048 91.8082L32.304 91.9522C32.0033 91.7786 31.7534 91.5291 31.5794 91.2287C31.4053 90.9282 31.3131 90.5874 31.312 90.2402V87.8882Z" fill="#DBE5FF"/>
<path d="M41.888 73.9043L43.904 75.0723L41.344 76.6243L39.312 75.4563L41.888 73.9043Z" fill="#DBE5FF"/>
<path d="M35.376 90.2241L37.392 91.3921L41.344 76.6241L39.312 75.4561L35.376 90.2241Z" fill="url(#paint10_linear_517_18157)"/>
<path d="M35.376 90.2241L37.392 91.3921V93.3921C37.3926 93.5441 37.3532 93.6936 37.2776 93.8254C37.2021 93.9573 37.0931 94.0669 36.9616 94.1432C36.8302 94.2195 36.6809 94.2597 36.5289 94.2599C36.3769 94.26 36.2276 94.2201 36.096 94.1441L36.352 94.2881C36.0555 94.1151 35.8095 93.8675 35.6382 93.57C35.467 93.2725 35.3766 92.9354 35.376 92.5921V90.2241Z" fill="#DBE5FF"/>
<path d="M35.8079 70.4004L37.8239 71.5684L35.2639 73.1044L33.2319 71.9364L35.8079 70.4004Z" fill="#FF2F0C"/>
<path d="M29.2959 86.72L31.3119 87.888L35.2639 73.104L33.2319 71.936L29.2959 86.72Z" fill="#FF664D"/>
<path d="M29.2959 86.7202L31.3119 87.8882V89.8882C31.311 90.0379 31.2713 90.1847 31.1965 90.3144C31.1218 90.4441 31.0147 90.5521 30.8856 90.6279C30.7566 90.7037 30.61 90.7447 30.4604 90.7469C30.3108 90.749 30.1631 90.7123 30.0319 90.6402L30.2719 90.7842C29.9731 90.6098 29.7256 90.3597 29.5542 90.0592C29.3829 89.7586 29.2938 89.4182 29.2959 89.0722V86.7202Z" fill="#FF2F0C"/>
<path d="M52.0159 79.7603L54.0319 80.9283L51.4719 82.4643L49.4399 81.2963L52.0159 79.7603Z" fill="#FF2F0C"/>
<path d="M45.5039 96.0804L47.5199 97.2484L51.4719 82.4644L49.4399 81.2964L45.5039 96.0804Z" fill="#FF664D"/>
<path d="M47.5199 97.248L51.4719 82.464L52.0159 82.144V96.8C52.0147 97.2089 51.9062 97.6103 51.7012 97.9641C51.4962 98.3178 51.202 98.6116 50.8479 98.816C50.719 98.8801 50.5762 98.911 50.4323 98.9059C50.2885 98.9008 50.1482 98.8598 50.0242 98.7867C49.9002 98.7136 49.7965 98.6106 49.7224 98.4872C49.6483 98.3638 49.6062 98.2238 49.5999 98.08V98.224C49.5987 98.6329 49.4902 99.0343 49.2852 99.3881C49.0802 99.7418 48.786 100.036 48.4319 100.24C48.1711 100.389 47.8761 100.467 47.5759 100.467C47.2757 100.467 46.9807 100.389 46.7199 100.24C46.3636 100.038 46.0676 99.7449 45.8623 99.3906C45.657 99.0362 45.5499 98.6336 45.5519 98.224V96.08L47.5199 97.248Z" fill="#FF2F0C"/>
<path d="M108.592 61.3763L110.192 62.3043C109.908 62.1709 109.592 62.1169 109.28 62.1479C108.967 62.1788 108.669 62.2937 108.416 62.4803L106.816 61.5523C107.07 61.3688 107.368 61.2559 107.68 61.225C107.992 61.1941 108.307 61.2463 108.592 61.3763Z" fill="#FF2F0C"/>
<path d="M72.144 92.9284L70.544 92.0004C70.2939 91.8196 70.0948 91.5774 69.9659 91.297C69.8369 91.0167 69.7825 90.7079 69.808 90.4004L71.408 91.3284C71.3825 91.6359 71.4369 91.9447 71.5659 92.225C71.6948 92.5054 71.8939 92.7476 72.144 92.9284Z" fill="#FF2F0C"/>
<path d="M71.408 91.3121L69.808 90.3841L69.792 85.8081L71.392 86.7361L71.408 91.3121Z" fill="#FF2F0C"/>
<path d="M73.904 82.3842L72.304 81.4562L106.8 61.5522L108.4 62.4802L73.904 82.3842Z" fill="#FF2F0C"/>
<path d="M71.392 86.7361L69.792 85.8081C69.8377 84.9359 70.0892 84.087 70.5258 83.3306C70.9624 82.5743 71.5717 81.9319 72.304 81.4561L73.904 82.3841C73.1735 82.8618 72.5655 83.5046 72.1291 84.2606C71.6928 85.0165 71.4403 85.8645 71.392 86.7361Z" fill="#FF2F0C"/>
<path d="M108.4 62.4802C109.776 61.6802 110.912 62.3202 110.912 63.9202V68.4962C110.864 69.3655 110.611 70.2112 110.175 70.9646C109.738 71.7181 109.13 72.3579 108.4 72.8322L73.936 92.8002C72.544 93.6002 71.408 92.9601 71.408 91.3602V86.7362C71.4562 85.8646 71.7087 85.0166 72.1451 84.2607C72.5815 83.5047 73.1894 82.8619 73.92 82.3842L108.4 62.4802Z" fill="#FF664D"/>
<path d="M105.376 71.4881L104.576 71.0241L106.448 69.9521L107.248 70.4161L105.376 71.4881Z" fill="#FFE3CA"/>
<path d="M105.376 69.6962L104.576 69.2322L106.288 68.2402L107.088 68.7042L105.376 69.6962Z" fill="#FFE3CA"/>
<path d="M104.304 73.2641L103.504 72.8001L103.488 67.9521L104.288 68.4161L104.304 73.2641Z" fill="#FFCC9E"/>
<path d="M104.288 68.4164L103.488 67.9524L106.432 66.2563L107.232 66.7204L104.288 68.4164Z" fill="#FFE3CA"/>
<path d="M107.232 66.7202V67.8722L105.376 68.9442V69.6962L107.088 68.7042V69.7762L105.376 70.7682V71.4882L107.248 70.4162V71.5682L104.304 73.2642L104.288 68.4162L107.232 66.7202Z" fill="#FFFEFC"/>
<path d="M101.472 73.4407L100.672 72.9767C100.8 73.0453 100.943 73.0812 101.088 73.0812C101.233 73.0812 101.376 73.0453 101.504 72.9767C101.631 72.9118 101.741 72.8191 101.827 72.7055C101.913 72.5919 101.972 72.4603 102 72.3206C102.014 72.2963 102.021 72.2687 102.021 72.2406C102.021 72.2126 102.014 72.185 102 72.1606L102.8 72.6246C102.813 72.6494 102.819 72.6768 102.819 72.7046C102.819 72.7325 102.813 72.7599 102.8 72.7847C102.772 72.9243 102.713 73.0559 102.627 73.1695C102.541 73.2831 102.431 73.3758 102.304 73.4407C102.177 73.5137 102.034 73.5521 101.888 73.5521C101.742 73.5521 101.598 73.5137 101.472 73.4407Z" fill="#FFCC9E"/>
<path d="M100.912 74.6563L100.112 74.1923L99.9359 74.0483L100.736 74.5123L100.912 74.6563Z" fill="#FFE3CA"/>
<path d="M100.736 74.5283L99.9359 74.0483L100.608 72.9443L101.408 73.4083L100.736 74.5283Z" fill="#FFCC9E"/>
<path d="M102.224 69.9844L103.024 70.4484L102.224 69.9844Z" fill="#FFE3CA"/>
<path d="M102.72 70.7683L103.52 71.2323C103.333 71.1744 103.136 71.1545 102.941 71.1737C102.745 71.193 102.556 71.251 102.384 71.3443L101.584 70.8803C101.756 70.787 101.945 70.729 102.141 70.7097C102.336 70.6905 102.533 70.7104 102.72 70.7683Z" fill="#FFE3CA"/>
<path d="M101.904 71.3766L101.104 70.9126C101.259 70.9662 101.428 70.9662 101.584 70.9126L102.384 71.3766C102.228 71.4302 102.059 71.4302 101.904 71.3766Z" fill="#FFE3CA"/>
<path d="M102.8 68.8804L103.6 69.3444C103.387 69.2492 103.153 69.2138 102.922 69.242C102.69 69.2702 102.471 69.3609 102.288 69.5044L101.488 69.0404C101.671 68.8969 101.89 68.8062 102.122 68.778C102.353 68.7498 102.587 68.7852 102.8 68.8804Z" fill="#FFE3CA"/>
<path d="M102.288 69.5043C102.495 69.346 102.748 69.2603 103.008 69.2603C103.268 69.2603 103.521 69.346 103.728 69.5043L103.04 70.4003C102.926 70.3343 102.796 70.2996 102.664 70.2996C102.532 70.2996 102.402 70.3343 102.288 70.4003C102.158 70.4695 102.047 70.5701 101.966 70.6931C101.885 70.8161 101.836 70.9575 101.824 71.1043C101.824 71.3443 102.048 71.3443 102.384 71.2483C103.136 70.9603 103.888 70.8323 103.84 72.0483C103.773 72.5456 103.594 73.0212 103.317 73.4396C103.04 73.858 102.672 74.2083 102.24 74.4643C102.036 74.6279 101.782 74.717 101.52 74.717C101.258 74.717 101.004 74.6279 100.8 74.4643L101.472 73.3603C101.606 73.4458 101.761 73.4912 101.92 73.4912C102.079 73.4912 102.234 73.4458 102.368 73.3603C102.495 73.2955 102.605 73.2028 102.691 73.0892C102.777 72.9756 102.836 72.844 102.864 72.7043C102.864 72.4163 102.48 72.4803 102.128 72.7043C101.456 72.9763 100.832 72.8483 100.832 71.9203C100.856 71.4286 101.001 70.9505 101.255 70.5289C101.51 70.1072 101.864 69.7552 102.288 69.5043Z" fill="#FFFEFC"/>
<path d="M101.12 72.6565L100.32 72.1925C100.194 72.1 100.095 71.9756 100.033 71.8322C99.9715 71.6888 99.949 71.5315 99.968 71.3765C100.02 70.8849 100.193 70.4139 100.472 70.0061C100.752 69.5982 101.128 69.2664 101.568 69.0405L102.368 69.5045C101.928 69.7304 101.552 70.0622 101.272 70.4701C100.993 70.8779 100.82 71.3489 100.768 71.8405C100.749 71.9955 100.772 72.1528 100.833 72.2962C100.895 72.4396 100.994 72.564 101.12 72.6565Z" fill="#FFE3CA"/>
<path d="M99.1999 76.2085L98.3999 75.7445V70.8965L99.1839 71.3605L99.1999 76.2085Z" fill="#FFCC9E"/>
<path d="M99.1839 71.3605L98.3999 70.8965L99.4559 70.2725L100.256 70.7525L99.1839 71.3605Z" fill="#FFE3CA"/>
<path d="M100.256 70.7524L100.272 75.6004L99.1998 76.2084L99.1838 71.3604L100.256 70.7524Z" fill="#FFFEFC"/>
<path d="M97.4719 77.2162L96.6719 76.7522L96.6559 74.9282L97.4559 75.3922L97.4719 77.2162Z" fill="#FFCC9E"/>
<path d="M96.2399 74.8961L95.4399 74.4321L96.6559 73.7441L97.4559 74.2081L96.2399 74.8961Z" fill="#FFE3CA"/>
<path d="M97.4559 74.2083L96.6559 73.7443V71.9043L97.4559 72.3683V74.2083Z" fill="#FFCC9E"/>
<path d="M97.4559 72.3683L96.6559 71.9043L97.7279 71.2803L98.5279 71.7443L97.4559 72.3683Z" fill="#FFE3CA"/>
<path d="M95.1679 73.6804L94.3679 73.2324L95.4399 72.6084L96.2399 73.0724L95.1679 73.6804Z" fill="#FFE3CA"/>
<path d="M95.1679 78.5444L94.3679 78.0804V73.2324L95.1679 73.6804V78.5444Z" fill="#FFCC9E"/>
<path d="M98.528 71.7441L98.544 76.5921L97.472 77.2161L97.456 75.3921L96.24 76.0961L96.256 77.9201L95.168 78.5441V73.6801L96.24 73.0721V74.8961L97.456 74.2081V72.3681L98.528 71.7441Z" fill="#FFFEFC"/>
<path d="M93.8559 77.7923L93.0559 77.3283L93.9839 77.2803L94.7839 77.7443L93.8559 77.7923Z" fill="#FFE3CA"/>
<path d="M92.7999 78.6401L91.9999 78.1761C92.0718 78.2126 92.1512 78.2317 92.2319 78.2317C92.3125 78.2317 92.392 78.2126 92.4639 78.1761C92.755 77.9972 92.971 77.7185 93.0719 77.3921L93.8719 77.8561C93.771 78.1825 93.555 78.4612 93.2639 78.6401C93.192 78.6766 93.1125 78.6957 93.0319 78.6957C92.9512 78.6957 92.8718 78.6766 92.7999 78.6401Z" fill="#FFCC9E"/>
<path d="M92.9919 75.312L93.7919 75.776L93.8879 75.872L93.0879 75.408L92.9919 75.312Z" fill="#FFE3CA"/>
<path d="M91.984 79.8879L91.184 79.4239C91.0444 79.3275 90.9346 79.194 90.8668 79.0386C90.7989 78.8831 90.7758 78.7118 90.7999 78.5439L91.6 79.0079C91.5758 79.1758 91.5989 79.3471 91.6668 79.5026C91.7346 79.658 91.8444 79.7915 91.984 79.8879Z" fill="#FFCC9E"/>
<path d="M93.6 74.1121L94.4 74.5761C94.2152 74.4998 94.0142 74.4715 93.8155 74.4939C93.6169 74.5163 93.4271 74.5886 93.264 74.7041L92.464 74.2401C92.6271 74.1246 92.8169 74.0523 93.0155 74.0299C93.2142 74.0075 93.4152 74.0358 93.6 74.1121Z" fill="#FFE3CA"/>
<path d="M91.5999 79.0079L90.7999 78.5439L90.7839 76.8799L91.5839 77.3439L91.5999 79.0079Z" fill="#FFCC9E"/>
<path d="M91.5839 77.3442L90.7999 76.8802C90.8223 76.341 90.9808 75.8161 91.2605 75.3545C91.5403 74.893 91.9322 74.5096 92.3999 74.2402L93.1999 74.7042C92.7368 74.9804 92.3478 75.365 92.0663 75.8249C91.7848 76.2848 91.6193 76.8062 91.5839 77.3442Z" fill="#FFE3CA"/>
<path d="M93.264 74.7041C93.792 74.4161 94.416 74.3041 94.752 74.9761L93.888 75.8721C93.76 75.6801 93.504 75.7121 93.264 75.8721C93.0994 75.955 92.9578 76.0772 92.8517 76.2279C92.7456 76.3786 92.6784 76.5532 92.656 76.7361V78.3361C92.656 78.6561 92.944 78.6881 93.248 78.5121C93.5391 78.3332 93.7551 78.0545 93.856 77.7281H94.784C94.4971 78.5509 93.9309 79.2473 93.184 79.6961C92.352 80.1761 91.584 80.0961 91.584 78.9921V77.3921C91.6184 76.8397 91.7901 76.3046 92.0834 75.8352C92.3767 75.3659 92.7825 74.9771 93.264 74.7041Z" fill="#FFFEFC"/>
<path d="M90.064 79.6802L89.264 79.2162L89.28 79.2002L90.08 79.6642L90.064 79.6802Z" fill="#FFE3CA"/>
<path d="M90.08 79.6641L89.28 79.2001L89.168 78.4321L89.968 78.8961L90.08 79.6641Z" fill="#FFE3CA"/>
<path d="M89.952 81.552L89.152 81.088L88.192 79.728L88.992 80.192L89.952 81.552Z" fill="#FFCC9E"/>
<path d="M88.992 80.1925L88.192 79.7285L87.824 78.9604L88.624 79.4405L88.992 80.1925Z" fill="#FFE3CA"/>
<path d="M89.968 78.8961L89.168 78.4321V76.2241L89.952 76.6881L89.968 78.8961Z" fill="#FFCC9E"/>
<path d="M89.952 76.6882L89.168 76.2242L90.224 75.6162L91.024 76.0802L89.952 76.6882Z" fill="#FFE3CA"/>
<path d="M87.648 78.0161L86.864 77.5521L87.872 76.9761L88.672 77.4401L87.648 78.0161Z" fill="#FFE3CA"/>
<path d="M87.664 82.8802L86.864 82.4162V77.5522L87.648 78.0162L87.664 82.8802Z" fill="#FFCC9E"/>
<path d="M91.0239 76.0801L91.0399 80.9281L89.9519 81.5521L88.9919 80.1921L88.6239 79.4401L88.5919 79.4561L88.7359 80.3201V82.2561L87.664 82.8801L87.6479 78.0161L88.6719 77.4401L89.6959 78.9121L90.0639 79.6801L90.0799 79.6641L89.9679 78.8961L89.9519 76.6881L91.0239 76.0801Z" fill="#FFFEFC"/>
<path d="M86.24 83.6965L85.44 83.2325L85.168 82.4165L85.968 82.8805L86.24 83.6965Z" fill="#FFCC9E"/>
<path d="M83.44 85.3123L82.64 84.8483L82.656 84.7363L83.456 85.2003L83.44 85.3123Z" fill="#FFE3CA"/>
<path d="M85.072 82.3042L84.272 81.8402L84.912 81.4722L85.712 81.9362L85.072 82.3042Z" fill="#FFE3CA"/>
<path d="M85.712 81.9361L84.912 81.4721L84.608 80.2241L85.408 80.6881L85.712 81.9361Z" fill="#FFCC9E"/>
<path d="M83.456 85.2003L82.656 84.7363L84.096 79.1523L84.896 79.6163L83.456 85.2003Z" fill="#FFCC9E"/>
<path d="M84.8959 79.6163L84.0959 79.1523L85.0719 78.5923L85.8719 79.0563L84.8959 79.6163Z" fill="#FFE3CA"/>
<path d="M85.8719 79.0562L87.3919 83.0402L86.2399 83.6962L85.9679 82.8802L84.8319 83.5362L84.5759 84.6562L83.5359 85.2642H83.4399V85.1522L84.8799 79.5682L85.8719 79.0562ZM85.0719 82.2562L85.7119 81.8882L85.4079 80.6402L85.1039 82.2402L85.0719 82.2562Z" fill="#FFFEFC"/>
<path d="M82.208 86.0323L81.408 85.5683L80.416 84.5923L81.216 85.0563L82.208 86.0323Z" fill="#FFCC9E"/>
<path d="M81.216 82.1284L82.016 82.5924C82.288 82.7364 82.16 83.4564 81.648 83.7444L80.848 83.2804C81.36 82.9924 81.488 82.2724 81.216 82.1284Z" fill="#FFCC9E"/>
<path d="M81.024 84.1123L80.224 83.6483L80.848 83.2803L81.648 83.7443L81.024 84.1123Z" fill="#FFE3CA"/>
<path d="M82.032 80.8164L82.832 81.2804C82.6292 81.2149 82.4132 81.201 82.2036 81.2401C81.9941 81.2792 81.7976 81.3701 81.632 81.5044L80.832 81.0404C80.9976 80.9061 81.194 80.8152 81.4036 80.7761C81.6132 80.737 81.8292 80.7509 82.032 80.8164Z" fill="#FFE3CA"/>
<path d="M79.952 87.3281L79.152 86.8641L79.136 82.0161L79.936 82.4801L79.952 87.3281Z" fill="#FFCC9E"/>
<path d="M82.368 84.2563L83.456 85.2003V85.3123L82.208 86.0323L81.232 85.0563L81.04 85.1683V86.7683L79.968 87.3923V82.5923L81.6 81.5043C82.464 80.9923 83.2 81.0723 83.2 82.1923C83.2147 82.5756 83.1481 82.9576 83.0048 83.3133C82.8614 83.669 82.6444 83.9904 82.368 84.2563ZM81.6 83.7443C82.272 83.3603 82.272 82.2563 81.6 82.6403L80.976 82.9923V84.1123L81.6 83.7443Z" fill="#FFFEFC"/>
<path d="M79.936 82.48L79.136 82.016L80.832 81.04L81.632 81.504L79.936 82.48Z" fill="#FFE3CA"/>
<path d="M77.5839 85.8723L76.7839 85.4084L78.4159 84.4644L79.2159 84.9284L77.5839 85.8723Z" fill="#FFE3CA"/>
<path d="M76.5119 89.312L75.7119 88.848L75.6959 84L76.4959 84.464L76.5119 89.312Z" fill="#FFCC9E"/>
<path d="M76.4959 84.4642L75.6959 84.0002L78.6399 82.3042L79.4399 82.7682L76.4959 84.4642Z" fill="#FFE3CA"/>
<path d="M79.44 82.7681V83.9201L77.584 85.0081V85.8721L79.216 84.9281V86.0801L77.584 87.0241L77.6 88.6881L76.512 89.3121L76.496 84.4641L79.44 82.7681Z" fill="#FFFEFC"/>
<path d="M117.872 53.2L64.4159 84.064V75.904L117.872 45.04V53.2Z" fill="#FF664D"/>
<path d="M23.376 52.2082L76.832 21.3442L117.872 45.0402L64.416 75.9042L23.376 52.2082Z" fill="#FF7B66"/>
<path d="M76.24 25.6001L110.496 45.3761L64.992 71.6481L30.736 51.8721L76.24 25.6001Z" fill="#ADADAD"/>
<path d="M76.24 25.6001L30.736 51.8721L32.864 53.1041L72.08 30.4641L102.976 48.3041L63.76 70.9441L64.992 71.6481L110.496 45.3761L76.24 25.6001Z" fill="#9C9997"/>
<path d="M23.376 60.368L64.416 84.064V75.904L23.376 52.208V60.368Z" fill="#FF2F0C"/>
<path d="M76.24 30.4641L106.288 47.8081L110.496 45.3761L76.24 25.6001L30.736 51.8721L34.96 54.3041L76.24 30.4641Z" fill="#FF2F0C"/>
<path d="M76.24 30.4641L34.96 54.3041L30.736 51.8721L76.24 25.6001V30.4641Z" fill="#FF664D"/>
<g style="mix-blend-mode:multiply">
<g style="mix-blend-mode:multiply">
<path d="M20.7039 123.504C22.8804 122.364 25.2943 121.751 27.7512 121.715C30.208 121.678 32.6389 122.22 34.8479 123.296C40.6079 126.592 42.7519 135.744 42.8479 136.224C41.9999 136.224 26.1119 134.96 20.3519 131.648C16.5439 129.472 16.7039 125.824 20.7039 123.504Z" fill="#EFE3CE"/>
</g>
</g>
<path d="M42.512 136.96C42.1652 137.137 41.7814 137.229 41.392 137.229C41.0027 137.229 40.6188 137.137 40.272 136.96C40.1383 136.912 40.0227 136.825 39.9409 136.709C39.8591 136.593 39.8152 136.454 39.8152 136.312C39.8152 136.17 39.8591 136.032 39.9409 135.916C40.0227 135.8 40.1383 135.712 40.272 135.664C40.6227 135.491 41.0087 135.4 41.4 135.4C41.7913 135.4 42.1773 135.491 42.528 135.664C42.6611 135.713 42.7757 135.803 42.8561 135.92C42.9365 136.037 42.9787 136.176 42.9769 136.318C42.9752 136.46 42.9296 136.598 42.8463 136.713C42.7631 136.828 42.6463 136.914 42.512 136.96Z" fill="#FCFCFC"/>
<path d="M43.008 119.776L38.64 117.232C39.9641 116.389 41.0683 115.242 41.8612 113.887C42.6542 112.532 43.1131 111.008 43.2 109.44C43.2526 108.885 43.1592 108.326 42.9291 107.818C42.699 107.31 42.3401 106.871 41.888 106.544L46.256 109.088C46.6989 109.424 47.0469 109.869 47.2657 110.379C47.4845 110.89 47.5666 111.448 47.504 112C47.4242 113.562 46.975 115.083 46.1935 116.437C45.4119 117.792 44.3202 118.942 43.008 119.792V119.776Z" fill="#FC9B00"/>
<path d="M43.008 119.776L38.64 117.232C39.9641 116.389 41.0683 115.242 41.8612 113.887C42.6542 112.532 43.1131 111.008 43.2 109.44C43.2526 108.885 43.1592 108.326 42.9291 107.818C42.699 107.31 42.3401 106.871 41.888 106.544L46.256 109.088C46.6989 109.424 47.0469 109.869 47.2657 110.379C47.4845 110.89 47.5666 111.448 47.504 112C47.4242 113.562 46.975 115.083 46.1935 116.437C45.4119 117.792 44.3202 118.942 43.008 119.792V119.776Z" fill="#FC9B00"/>
<path d="M39.8079 120.08L35.424 117.536C35.9367 117.773 36.5029 117.869 37.0649 117.815C37.6269 117.762 38.1648 117.561 38.6239 117.232L42.992 119.776C42.5328 120.105 41.9949 120.306 41.4329 120.359C40.8709 120.413 40.3047 120.317 39.792 120.08H39.8079Z" fill="#FC9B00"/>
<path d="M42.976 109.408L38.608 106.864C39.0657 106.533 39.6029 106.329 40.1649 106.273C40.727 106.217 41.2939 106.311 41.808 106.544L46.176 109.088C45.6619 108.855 45.095 108.761 44.5329 108.817C43.9709 108.873 43.4337 109.077 42.976 109.408Z" fill="#CEE1ED"/>
<path d="M39.8079 120.08L35.4239 117.536C34.9719 117.21 34.613 116.771 34.3828 116.263C34.1527 115.755 34.0593 115.195 34.1119 114.64C34.2006 113.083 34.6535 111.568 35.4344 110.217C36.2153 108.867 37.3023 107.718 38.6079 106.864L42.9759 109.408C41.6676 110.259 40.5786 111.407 39.7974 112.758C39.0162 114.109 38.5648 115.626 38.4799 117.184C38.4291 117.741 38.5249 118.301 38.7579 118.809C38.9909 119.317 39.3529 119.756 39.8079 120.08Z" fill="#CEE1ED"/>
<path d="M42.976 109.408C45.472 107.968 47.504 109.12 47.504 111.984C47.4241 113.546 46.975 115.067 46.1934 116.421C45.4119 117.776 44.3202 118.926 43.008 119.776C40.528 121.2 38.496 120.048 38.48 117.184C38.5648 115.626 39.0162 114.11 39.7975 112.758C40.5787 111.407 41.6677 110.259 42.976 109.408Z" fill="#FCFCFC"/>
<path d="M42.976 105.392L38.592 102.848C39.4072 102.253 40.367 101.887 41.3716 101.789C42.3762 101.69 43.3888 101.863 44.304 102.288L48.672 104.832C47.7596 104.406 46.7494 104.234 45.7473 104.332C44.7452 104.431 43.7881 104.797 42.976 105.392Z" fill="#FC9B00"/>
<path d="M42.976 105.392C47.3919 102.832 50.9759 104.88 50.9759 109.952C50.9759 117.616 43.424 133.952 42.976 134.88C42.576 134.48 34.976 126.88 34.976 119.2C35.1273 116.431 35.9308 113.737 37.3211 111.338C38.7113 108.938 40.6489 106.901 42.976 105.392ZM42.976 119.792C44.2941 118.945 45.392 117.797 46.1793 116.442C46.9665 115.087 47.4206 113.565 47.5039 112C47.5039 109.136 45.4719 107.984 42.976 109.424C41.6677 110.275 40.5786 111.423 39.7974 112.774C39.0162 114.125 38.5648 115.642 38.4799 117.2C38.4799 120.064 40.5279 121.216 43.0079 119.792H42.976Z" fill="#FFBB00"/>
<path d="M43.056 134.88L38.688 132.336C38.272 131.936 30.688 124.336 30.688 116.672C30.8368 113.9 31.6392 111.203 33.0296 108.8C34.4199 106.398 36.3588 104.358 38.688 102.848L43.072 105.392C40.745 106.901 38.8073 108.938 37.4171 111.337C36.0268 113.737 35.2233 116.431 35.072 119.2C35.072 126.864 42.736 134.48 43.072 134.88H43.056Z" fill="#FC9B00"/>
<path d="M44.3039 110.144L42.9919 109.376C43.4496 109.045 43.9868 108.841 44.5488 108.785C45.1109 108.729 45.6778 108.822 46.1919 109.056L47.5039 109.824C46.9898 109.59 46.4229 109.497 45.8608 109.553C45.2988 109.609 44.7616 109.813 44.3039 110.144Z" fill="#CEE1ED"/>
<path d="M41.12 120.816L39.808 120C39.3559 119.673 38.997 119.234 38.7669 118.726C38.5367 118.219 38.4433 117.659 38.496 117.104C38.5758 115.542 39.025 114.022 39.8065 112.667C40.5881 111.313 41.6798 110.163 42.992 109.312L44.304 110.08C42.9921 110.927 41.9003 112.074 41.1187 113.426C40.337 114.778 39.8877 116.296 39.808 117.856C39.7553 118.411 39.8487 118.971 40.0789 119.478C40.309 119.986 40.6679 120.425 41.12 120.752V120.816Z" fill="#CEE1ED"/>
<path d="M44.304 110.144C46.784 108.704 48.816 109.856 48.832 112.72C48.7458 114.281 48.294 115.799 47.513 117.152C46.732 118.506 45.6437 119.657 44.336 120.512C41.84 121.936 39.808 120.784 39.808 117.92C39.8878 116.361 40.337 114.842 41.1187 113.49C41.9004 112.138 42.9921 110.992 44.304 110.144Z" fill="#FCFCFC"/>
<defs>
<linearGradient id="paint0_linear_517_18157" x1="109.984" y1="80.7044" x2="107.568" y2="76.5285" gradientUnits="userSpaceOnUse">
<stop stop-color="#EFEAEA"/>
<stop offset="0.06" stop-color="#EAE8E8"/>
<stop offset="0.09" stop-color="#E5E5E5"/>
<stop offset="0.67" stop-color="#E9E7E7"/>
<stop offset="1" stop-color="#EFEAEA"/>
</linearGradient>
<linearGradient id="paint1_linear_517_18157" x1="105.92" y1="83.0404" x2="103.52" y2="78.8804" gradientUnits="userSpaceOnUse">
<stop stop-color="#EFEAEA"/>
<stop offset="0.06" stop-color="#EAE8E8"/>
<stop offset="0.09" stop-color="#E5E5E5"/>
<stop offset="0.67" stop-color="#E9E7E7"/>
<stop offset="1" stop-color="#EFEAEA"/>
</linearGradient>
<linearGradient id="paint2_linear_517_18157" x1="82.2239" y1="96.7201" x2="79.8239" y2="92.5601" gradientUnits="userSpaceOnUse">
<stop stop-color="#EFEAEA"/>
<stop offset="0.06" stop-color="#EAE8E8"/>
<stop offset="0.09" stop-color="#E5E5E5"/>
<stop offset="0.67" stop-color="#E9E7E7"/>
<stop offset="1" stop-color="#EFEAEA"/>
</linearGradient>
<linearGradient id="paint3_linear_517_18157" x1="78.1759" y1="99.056" x2="75.7759" y2="94.896" gradientUnits="userSpaceOnUse">
<stop stop-color="#EFEAEA"/>
<stop offset="0.06" stop-color="#EAE8E8"/>
<stop offset="0.09" stop-color="#E5E5E5"/>
<stop offset="0.67" stop-color="#E9E7E7"/>
<stop offset="1" stop-color="#EFEAEA"/>
</linearGradient>
<linearGradient id="paint4_linear_517_18157" x1="90.336" y1="92.0482" x2="87.936" y2="87.8722" gradientUnits="userSpaceOnUse">
<stop stop-color="#EFEAEA"/>
<stop offset="0.06" stop-color="#EAE8E8"/>
<stop offset="0.09" stop-color="#E5E5E5"/>
<stop offset="0.67" stop-color="#E9E7E7"/>
<stop offset="1" stop-color="#EFEAEA"/>
</linearGradient>
<linearGradient id="paint5_linear_517_18157" x1="86.288" y1="94.3841" x2="83.872" y2="90.2081" gradientUnits="userSpaceOnUse">
<stop stop-color="#EFEAEA"/>
<stop offset="0.06" stop-color="#EAE8E8"/>
<stop offset="0.09" stop-color="#E5E5E5"/>
<stop offset="0.67" stop-color="#E9E7E7"/>
<stop offset="1" stop-color="#EFEAEA"/>
</linearGradient>
<linearGradient id="paint6_linear_517_18157" x1="94.384" y1="89.6962" x2="91.984" y2="85.5361" gradientUnits="userSpaceOnUse">
<stop stop-color="#EFEAEA"/>
<stop offset="0.06" stop-color="#EAE8E8"/>
<stop offset="0.09" stop-color="#E5E5E5"/>
<stop offset="0.67" stop-color="#E9E7E7"/>
<stop offset="1" stop-color="#EFEAEA"/>
</linearGradient>
<linearGradient id="paint7_linear_517_18157" x1="38.72" y1="92.16" x2="46.096" y2="79.36" gradientUnits="userSpaceOnUse">
<stop stop-color="#EFEAEA"/>
<stop offset="0.06" stop-color="#EAE8E8"/>
<stop offset="0.09" stop-color="#E5E5E5"/>
<stop offset="0.67" stop-color="#E9E7E7"/>
<stop offset="1" stop-color="#EFEAEA"/>
</linearGradient>
<linearGradient id="paint8_linear_517_18157" x1="42.7679" y1="94.4964" x2="50.1439" y2="81.7124" gradientUnits="userSpaceOnUse">
<stop stop-color="#EFEAEA"/>
<stop offset="0.06" stop-color="#EAE8E8"/>
<stop offset="0.09" stop-color="#E5E5E5"/>
<stop offset="0.67" stop-color="#E9E7E7"/>
<stop offset="1" stop-color="#EFEAEA"/>
</linearGradient>
<linearGradient id="paint9_linear_517_18157" x1="30.608" y1="87.472" x2="38" y2="74.688" gradientUnits="userSpaceOnUse">
<stop stop-color="#EFEAEA"/>
<stop offset="0.06" stop-color="#EAE8E8"/>
<stop offset="0.09" stop-color="#E5E5E5"/>
<stop offset="0.67" stop-color="#E9E7E7"/>
<stop offset="1" stop-color="#EFEAEA"/>
</linearGradient>
<linearGradient id="paint10_linear_517_18157" x1="34.656" y1="89.8241" x2="42.048" y2="77.0241" gradientUnits="userSpaceOnUse">
<stop stop-color="#EFEAEA"/>
<stop offset="0.06" stop-color="#EAE8E8"/>
<stop offset="0.09" stop-color="#E5E5E5"/>
<stop offset="0.67" stop-color="#E9E7E7"/>
<stop offset="1" stop-color="#EFEAEA"/>
</linearGradient>
</defs>
</svg>
